<svg width="409" height="531" viewBox="0 0 409 531" fill="none" xmlns="http://www.w3.org/2000/svg">
<path d="M177.265 443.765C184.838 447.679 193.021 451.694 201.814 456.014V297.588L220.314 316.089C225.354 321.174 228.185 328.041 228.193 335.2V455.658C236.986 451.338 245.169 447.272 252.793 443.358C257.599 440.872 261.627 437.109 264.434 432.482C267.241 427.855 268.717 422.544 268.701 417.132V326.712C268.707 320.545 267.494 314.437 265.13 308.741C262.766 303.045 259.298 297.873 254.927 293.522L211.166 249.71L254.927 205.898C259.294 201.544 262.758 196.371 265.122 190.676C267.486 184.98 268.702 178.874 268.701 172.708V15.7054L228.04 0.457458V164.372C228.032 171.531 225.201 178.398 220.162 183.483L201.661 201.984V0L161 15.2479V417.335C160.986 422.817 162.5 428.195 165.373 432.864C168.246 437.532 172.364 441.308 177.265 443.765Z" fill="#9F9F9F" fill-opacity="0.06"/>
<path d="M409 96.0528C409.015 87.3499 406.377 78.8492 401.437 71.6843C396.497 64.5194 389.49 59.0309 381.35 55.9508L351.16 44.464V172.242L325.035 203.449L325.441 78.0094V34.7053L284.78 19.4574V410.821C312.989 387.44 324.679 356.335 324.679 288.837V267.134L350.855 235.673V288.837C350.855 413.413 309.228 433.845 226.228 474.506C219.113 478.013 211.794 481.571 204.271 485.332C196.749 481.571 189.43 478.013 182.314 474.506C99.3148 433.845 57.688 413.514 57.688 288.837V87.7681L84.0669 77.6028V152.47C85.4392 212.293 104.397 215.8 124.728 225.508V19L27.6496 55.9508C19.51 59.0309 12.5029 64.5194 7.56287 71.6843C2.62281 78.8492 -0.0154064 87.3499 6.76829e-05 96.0528V109.573L17.3318 102.965V288.431C17.3318 438.216 79.1367 468.508 164.728 510.44C174.538 515.523 184.703 520.25 195.224 525.688L204.424 530.415L213.623 525.688C224.195 520.301 234.36 515.523 244.119 510.44C329.609 468.508 391.516 438.216 391.516 288.431V103.168L408.847 109.776L409 96.0528Z" fill="#9F9F9F" fill-opacity="0.06"/>
</svg>
