<svg width="11" height="6" viewBox="0 0 11 6" fill="none" xmlns="http://www.w3.org/2000/svg">
<mask id="path-1-inside-1" fill="white">
<path d="M5.50333 5.64011C5.56614 5.63917 5.6252 5.61386 5.66926 5.5698L10.4693 0.769799C10.5321 0.709799 10.5574 0.619798 10.5349 0.536361C10.5133 0.451986 10.4477 0.386361 10.3633 0.364799C10.2799 0.342299 10.1899 0.367611 10.1299 0.430424L5.49958 5.06074L0.869262 0.430424C0.809262 0.367612 0.719262 0.342299 0.635825 0.364799C0.55145 0.386362 0.485825 0.451987 0.464262 0.536362C0.441762 0.619799 0.467075 0.709799 0.529887 0.769799L5.32989 5.5698C5.37583 5.61574 5.43864 5.64105 5.50333 5.64011Z"/>
</mask>
<path d="M5.50333 5.64011C5.56614 5.63917 5.6252 5.61386 5.66926 5.5698L10.4693 0.769799C10.5321 0.709799 10.5574 0.619798 10.5349 0.536361C10.5133 0.451986 10.4477 0.386361 10.3633 0.364799C10.2799 0.342299 10.1899 0.367611 10.1299 0.430424L5.49958 5.06074L0.869262 0.430424C0.809262 0.367612 0.719262 0.342299 0.635825 0.364799C0.55145 0.386362 0.485825 0.451987 0.464262 0.536362C0.441762 0.619799 0.467075 0.709799 0.529887 0.769799L5.32989 5.5698C5.37583 5.61574 5.43864 5.64105 5.50333 5.64011Z" fill="#E4B564"/>
<path d="M5.50333 5.64011L5.51782 6.64001L5.51825 6.64L5.50333 5.64011ZM5.66926 5.5698L6.37637 6.27691L6.37637 6.27691L5.66926 5.5698ZM10.4693 0.769799L9.77853 0.0466879L9.77025 0.0545961L9.76216 0.0626919L10.4693 0.769799ZM10.5349 0.536361L9.56594 0.783981L9.56938 0.796724L10.5349 0.536361ZM10.3633 0.364799L10.1029 1.33039L10.1157 1.33366L10.3633 0.364799ZM10.1299 0.430424L10.837 1.13753L10.8451 1.12943L10.853 1.12116L10.1299 0.430424ZM5.49958 5.06074L4.79247 5.76784L5.49958 6.47495L6.20668 5.76784L5.49958 5.06074ZM0.869262 0.430424L0.146151 1.12116L0.15406 1.12944L0.162155 1.13753L0.869262 0.430424ZM0.635825 0.364799L0.883445 1.33375L0.896187 1.33031L0.635825 0.364799ZM0.464262 0.536362L1.42986 0.796747L1.43312 0.78396L0.464262 0.536362ZM0.529887 0.769799L1.23699 0.0626926L1.2289 0.0545969L1.22062 0.0466886L0.529887 0.769799ZM5.32989 5.5698L6.03699 4.86269L6.03699 4.86269L5.32989 5.5698ZM5.51825 6.64C5.84354 6.63515 6.15017 6.50311 6.37637 6.27691L4.96216 4.86269C5.10023 4.72462 5.28874 4.6432 5.4884 4.64022L5.51825 6.64ZM6.37637 6.27691L11.1764 1.47691L9.76216 0.0626919L4.96216 4.86269L6.37637 6.27691ZM11.16 1.49291C11.4857 1.18183 11.6189 0.715289 11.5004 0.275998L9.56938 0.796724C9.49592 0.524308 9.5785 0.237763 9.77853 0.0466879L11.16 1.49291ZM11.5038 0.288762C11.3917 -0.149798 11.0495 -0.491988 10.6109 -0.604064L10.1157 1.33366C9.84592 1.26471 9.63498 1.05377 9.56602 0.78396L11.5038 0.288762ZM10.6237 -0.600712C10.1844 -0.719172 9.71785 -0.585967 9.40678 -0.260308L10.853 1.12116C10.6619 1.32119 10.3754 1.40377 10.103 1.33031L10.6237 -0.600712ZM9.42278 -0.276683L4.79247 4.35363L6.20668 5.76784L10.837 1.13753L9.42278 -0.276683ZM6.20668 4.35363L1.57637 -0.276682L0.162155 1.13753L4.79247 5.76784L6.20668 4.35363ZM1.59237 -0.260308C1.2813 -0.585966 0.814751 -0.719172 0.375462 -0.600711L0.896187 1.33031C0.623774 1.40377 0.337228 1.32119 0.146151 1.12116L1.59237 -0.260308ZM0.388226 -0.604063C-0.0503325 -0.491987 -0.392524 -0.149795 -0.504601 0.288763L1.43312 0.78396C1.36417 1.05377 1.15323 1.26471 0.883423 1.33366L0.388226 -0.604063ZM-0.501249 0.275999C-0.619709 0.715288 -0.486503 1.18183 -0.160845 1.49291L1.22062 0.0466886C1.42065 0.237765 1.50323 0.524311 1.42977 0.796724L-0.501249 0.275999ZM-0.17722 1.47691L4.62278 6.27691L6.03699 4.86269L1.23699 0.0626926L-0.17722 1.47691ZM4.62278 6.27691C4.86068 6.5148 5.18415 6.64484 5.51782 6.64001L5.48884 4.64022C5.69313 4.63726 5.89097 4.71667 6.03699 4.86269L4.62278 6.27691Z" fill="#E4B564" mask="url(#path-1-inside-1)"/>
</svg>
