<svg width="40" height="40" viewBox="0 0 40 40" fill="none" xmlns="http://www.w3.org/2000/svg">
<path d="M18.8779 3.84961C17.7172 3.84961 16.7244 4.43276 16.0342 5.26758C15.7726 5.19697 15.5129 5.11816 15.2168 5.11816C13.5396 5.11816 12.2029 6.37266 11.9238 7.97949C11.4733 7.75192 10.9871 7.58691 10.4463 7.58691C8.56933 7.58691 7.03906 9.129 7.03906 11.0137C7.03906 11.1635 7.07839 11.2877 7.09863 11.4258C5.66632 11.8297 4.58984 13.096 4.58984 14.6602C4.58984 16.4294 5.95311 17.848 7.6709 18.0215C7.33705 18.5537 7.11637 19.1442 7.06738 19.8076C5.62383 20.2051 4.53906 21.4856 4.53906 23.0586C4.53906 24.9436 6.06916 26.4863 7.94727 26.4863C8.10122 26.4863 8.2304 26.4437 8.37305 26.4219C8.78366 27.8446 10.034 28.916 11.5811 28.916C12.6629 28.916 13.5725 28.3508 14.1943 27.5586C14.5046 27.633 14.8168 27.7109 15.166 27.7109C15.9964 27.7109 16.7644 27.4629 17.4365 27.0742C17.6063 27.1345 17.7794 27.1893 17.9561 27.2334C17.9525 28.7971 17.7667 29.8904 17.4961 30.6045C17.2012 31.3827 16.8376 31.7386 16.4902 31.9414C16.0554 32.1954 15.4339 32.2376 14.292 32.8594C13.1539 33.4789 12.3573 34.228 11.8574 34.7715C11.8126 34.8198 11.7778 34.8764 11.755 34.9382C11.7322 35 11.7218 35.0657 11.7244 35.1315C11.727 35.1973 11.7426 35.2619 11.7703 35.3217C11.798 35.3814 11.8372 35.4351 11.8857 35.4797C11.9342 35.5243 11.991 35.5588 12.0529 35.5814C12.1147 35.6039 12.1805 35.614 12.2462 35.6111C12.312 35.6082 12.3766 35.5923 12.4362 35.5643C12.4959 35.5364 12.5494 35.4969 12.5938 35.4482C13.0449 34.9577 13.7576 34.2887 14.7705 33.7373C15.7866 33.1841 16.311 33.2047 16.9941 32.8057C17.5398 32.487 18.0711 31.9079 18.4307 30.959C18.757 30.0978 18.9477 28.9078 18.9551 27.29C19.5177 27.2217 20.0298 27.0078 20.4844 26.7139C20.8049 27.0133 21.1795 27.2564 21.6025 27.3906C21.43 28.8118 21.4656 29.8788 21.6582 30.6738C21.8722 31.5573 22.2857 32.1332 22.7363 32.4746C23.5314 33.0772 24.2491 33.0194 25.2676 33.8213C25.9201 34.3355 26.3402 34.9029 26.5889 35.2949C26.6241 35.3504 26.6699 35.3984 26.7236 35.4362C26.7774 35.4739 26.838 35.5007 26.9021 35.5151C26.9662 35.5294 27.0325 35.531 27.0973 35.5197C27.162 35.5084 27.2238 35.4844 27.2793 35.4492C27.3348 35.414 27.3828 35.3682 27.4205 35.3145C27.4583 35.2607 27.4851 35.2001 27.4994 35.136C27.5138 35.0719 27.5153 35.0055 27.504 34.9408C27.4927 34.8761 27.4688 34.8143 27.4336 34.7588C27.1464 34.306 26.6568 33.6418 25.8867 33.0352C24.6852 32.0891 23.8138 32.0362 23.3408 31.6777C23.0726 31.4746 22.8005 31.1429 22.6299 30.4385C22.4754 29.8008 22.4321 28.8377 22.5977 27.4844C23.37 27.3916 24.0075 26.935 24.4541 26.334C24.8598 26.4627 25.2723 26.585 25.7207 26.585C26.5115 26.585 27.238 26.3435 27.8721 25.9697C27.891 25.9727 27.9178 25.9735 27.9414 25.9766C28.5291 27.0027 29.6044 27.7158 30.8643 27.7158C32.7412 27.7158 34.2715 26.1728 34.2715 24.2881C34.2715 23.2308 33.7452 22.3286 32.9932 21.6992C32.998 21.658 33.0013 21.6178 33.0049 21.5772C34.4119 21.154 35.46 19.8889 35.46 18.3428C35.46 16.717 34.3029 15.4018 32.7852 15.0566C32.4826 13.7866 31.5011 12.8213 30.2285 12.542C30.4621 12.083 30.6328 11.5873 30.6328 11.0342C30.6328 9.1492 29.1029 7.60645 27.2256 7.60645C26.5471 7.60645 25.9505 7.85845 25.4209 8.20313C24.8575 7.09856 23.7561 6.31543 22.4375 6.31543C22.3995 6.31543 22.3808 6.32228 22.3457 6.32422C21.8101 4.89528 20.4847 3.84961 18.8779 3.84961ZM18.8779 4.84961C20.1782 4.84961 21.255 5.75552 21.5508 6.97363C21.5799 7.09363 21.6523 7.19863 21.7542 7.26841C21.8561 7.33819 21.9801 7.3678 22.1025 7.35156C22.2481 7.33227 22.3572 7.31543 22.4375 7.31543C23.5338 7.31543 24.4418 8.05415 24.7363 9.06641C24.7605 9.14902 24.8055 9.22401 24.8671 9.28412C24.9287 9.34422 25.0048 9.38741 25.0879 9.40951C25.1711 9.43161 25.2586 9.43186 25.3419 9.41025C25.4252 9.38863 25.5015 9.34588 25.5635 9.28613C25.9983 8.86542 26.5773 8.60645 27.2256 8.60645C28.5583 8.60645 29.6328 9.68616 29.6328 11.0342C29.6328 11.6321 29.4117 12.168 29.0498 12.5967C28.9871 12.671 28.9473 12.7619 28.9355 12.8584C28.9236 12.9549 28.9401 13.0528 28.983 13.14C29.0259 13.2273 29.0933 13.3001 29.177 13.3497C29.2607 13.3992 29.357 13.4233 29.4541 13.4189C29.559 13.4142 29.5829 13.4092 29.5264 13.4092C30.7495 13.4092 31.7403 14.3244 31.8984 15.5156C31.9131 15.6257 31.9639 15.7277 32.0429 15.8057C32.122 15.8837 32.2247 15.9332 32.335 15.9463C33.5322 16.0898 34.46 17.094 34.46 18.3428C34.46 19.5495 33.5912 20.5336 32.4551 20.7295C32.3623 20.7456 32.2759 20.7876 32.2059 20.8507C32.136 20.9138 32.0852 20.9953 32.0596 21.0859L31.79 20.7988L31.6172 20.7676L31.2168 20.9688L31.1377 21.4102L31.4434 21.7373L31.6172 21.7676L32.0029 21.5742C31.9959 21.6336 31.9957 21.7045 31.9854 21.7588C31.9669 21.855 31.9772 21.9546 32.0149 22.045C32.0526 22.1355 32.116 22.2129 32.1973 22.2676C32.844 22.7033 33.2715 23.4411 33.2715 24.2881C33.2715 25.6354 32.1963 26.7158 30.8643 26.7158C29.8854 26.7158 29.0501 26.1251 28.6729 25.2793C28.6331 25.1898 28.5679 25.114 28.4855 25.0612C28.403 25.0085 28.3069 24.9811 28.209 24.9824C28.0824 24.9843 28.054 24.9932 28.1143 24.9932C28.0777 24.9932 27.9895 24.9743 27.8311 24.9619C27.7206 24.9531 27.6103 24.9813 27.5176 25.042C26.997 25.3841 26.3853 25.585 25.7207 25.585C25.2819 25.585 24.8659 25.4975 24.4814 25.3398C24.367 25.2927 24.2392 25.2897 24.1227 25.3314C24.0061 25.373 23.9092 25.4564 23.8506 25.5654C23.5499 26.1255 22.9806 26.5039 22.3096 26.5039C22.297 26.5039 22.285 26.5022 22.2725 26.502C22.2382 26.4934 22.2032 26.4885 22.168 26.4873C22.1448 26.4867 22.1216 26.4877 22.0986 26.4902C21.6224 26.432 21.2102 26.1799 20.9258 25.8115C20.8849 25.7587 20.8339 25.7146 20.7757 25.6819C20.7175 25.6491 20.6533 25.6283 20.5869 25.6208C20.5206 25.6132 20.4534 25.619 20.3893 25.6379C20.3252 25.6567 20.2656 25.6882 20.2139 25.7305C19.7645 26.0984 19.2119 26.3213 18.5996 26.3213C18.5887 26.3213 18.5783 26.3195 18.5674 26.3193C18.527 26.3104 18.4857 26.3064 18.4443 26.3076C18.431 26.3081 18.4176 26.309 18.4043 26.3105C18.1108 26.2875 17.832 26.2165 17.5713 26.1016C17.4955 26.0683 17.4127 26.0544 17.3302 26.061C17.2477 26.0677 17.1681 26.0947 17.0986 26.1397C16.5388 26.5007 15.8787 26.7109 15.166 26.7109C14.8365 26.7109 14.5114 26.6489 14.1807 26.5527C14.0759 26.5222 13.9641 26.5268 13.8621 26.5657C13.7602 26.6047 13.6739 26.6759 13.6162 26.7686C13.1888 27.4578 12.4436 27.916 11.5811 27.916C10.3859 27.916 9.4165 27.0387 9.22656 25.8867L9.40039 25.7988L9.47949 25.3584L9.17383 25.0313L9 25L8.59961 25.2012L8.56543 25.3906C8.3524 25.4496 8.14993 25.4863 7.94727 25.4863C6.61337 25.4863 5.53906 24.4066 5.53906 23.0586C5.53906 21.8351 6.43077 20.8442 7.58984 20.6689C7.71229 20.6505 7.82353 20.5872 7.902 20.4914C7.98048 20.3956 8.02062 20.2741 8.01465 20.1504C8.0103 20.0594 8.00684 20.038 8.00684 20.084C8.00684 19.256 8.34586 18.5217 8.88672 17.9795L9 18L9.40039 17.7988L9.47949 17.3584L9.17383 17.0313L9 17L8.88086 17.0596C8.77537 17.0059 8.65426 16.9913 8.53906 17.0186C8.35521 17.0619 8.17671 17.0879 7.99609 17.0879C6.66337 17.0879 5.58984 16.0082 5.58984 14.6602C5.58984 13.4137 6.51586 12.4094 7.70996 12.2646C7.78085 12.256 7.84907 12.2322 7.91002 12.195C7.97097 12.1578 8.02323 12.1079 8.0633 12.0488C8.10336 11.9897 8.13029 11.9227 8.14228 11.8522C8.15428 11.7818 8.15105 11.7097 8.13281 11.6406C8.07521 11.4219 8.03906 11.2171 8.03906 11.0137C8.03906 9.66634 9.11425 8.58691 10.4463 8.58691C11.0453 8.58691 11.5803 8.8119 12.0078 9.18359C12.0833 9.24904 12.1768 9.29034 12.276 9.30219C12.3752 9.31403 12.4757 9.29587 12.5645 9.25004C12.6534 9.20422 12.7264 9.13283 12.7743 9.04509C12.8221 8.95736 12.8426 8.85729 12.833 8.75781C12.8211 8.63571 12.8096 8.56936 12.8096 8.5459C12.8096 7.19857 13.8848 6.11816 15.2168 6.11816C15.4859 6.11816 15.7466 6.17381 16.0098 6.2666C16.1142 6.30343 16.228 6.30452 16.3332 6.2697C16.4383 6.23488 16.529 6.16612 16.5908 6.07422C17.0889 5.33385 17.9239 4.84961 18.8779 4.84961ZM16.9346 8.16211L16.5342 8.36328L16.4551 8.80371L16.7617 9.13086L16.9346 9.16211L17.335 8.96191L17.4141 8.52051L17.1084 8.19336L16.9346 8.16211ZM18.877 8.21094L18.4766 8.41113L18.3975 8.85254L18.7041 9.17969L18.877 9.21094L19.2773 9.00977L19.3564 8.56934L19.0508 8.24219L18.877 8.21094ZM15.5 9.5L15.0996 9.70117L15.0205 10.1416L15.3262 10.4688L15.5 10.5L15.9004 10.2988L15.9795 9.8584L15.6738 9.53125L15.5 9.5ZM20.3018 9.56445L19.9014 9.76465L19.8223 10.2061L20.1279 10.5332L20.3018 10.5645L20.7021 10.3633L20.7812 9.92285L20.4746 9.59473L20.3018 9.56445ZM27.3857 12.4434L26.9854 12.6436L26.9062 13.085L27.2119 13.4121L27.3857 13.4434L27.7861 13.2422L27.8652 12.8018L27.5596 12.4736L27.3857 12.4434ZM25.5107 13.0928L25.1104 13.293L25.0312 13.7344L25.3379 14.0615L25.5107 14.0928L25.9121 13.8916L25.9902 13.4512L25.6846 13.123L25.5107 13.0928ZM19.8906 14.1357L19.4902 14.3359L19.4111 14.7773L19.7168 15.1045L19.8906 15.1357L20.291 14.9346L20.3701 14.4941L20.0645 14.166L19.8906 14.1357ZM21.8096 14.3359L21.4092 14.5371L21.3301 14.9785L21.6357 15.3057L21.8096 15.3359L22.21 15.1357L22.2891 14.6943L21.9834 14.3672L21.8096 14.3359ZM24.0137 14.4014L23.6123 14.6025L23.5342 15.043L23.8398 15.3701L24.0137 15.4014L24.4141 15.2012L24.4932 14.7598L24.1865 14.4326L24.0137 14.4014ZM18.5 15.5L18.0996 15.7012L18.0205 16.1416L18.3262 16.4688L18.5 16.5L18.9004 16.2988L18.9795 15.8584L18.6738 15.5313L18.5 15.5ZM22.9688 15.9033L22.5684 16.1035L22.4893 16.5449L22.7959 16.8721L22.9688 16.9033L23.3691 16.7022L23.4482 16.2607L23.1426 15.9336L22.9688 15.9033ZM10.9111 16.4766L10.5107 16.6777L10.4316 17.1191L10.7373 17.4463L10.9111 17.4766L11.3115 17.2764L11.3906 16.835L11.084 16.5078L10.9111 16.4766ZM12.8398 16.916L12.4385 17.1172L12.3604 17.5586L12.666 17.8857L12.8398 17.916L13.2402 17.7158L13.3193 17.2744L13.0127 16.9473L12.8398 16.916ZM29.7686 20.0469L29.3682 20.248L29.2891 20.6885L29.5947 21.0156L29.7686 21.0469L30.1689 20.8467L30.248 20.4053L29.9424 20.0781L29.7686 20.0469ZM27.7871 20.1338L27.3867 20.335L27.3076 20.7764L27.6143 21.1035L27.7871 21.1338L28.1885 20.9336L28.2666 20.4922L27.9609 20.165L27.7871 20.1338ZM26 21L25.5996 21.2012L25.5205 21.6416L25.8262 21.9688L26 22L26.4004 21.7988L26.4795 21.3584L26.1738 21.0313L26 21ZM11.9346 22.5547L11.5332 22.7549L11.4551 23.1963L11.7607 23.5234L11.9346 23.5547L12.335 23.3535L12.4141 22.9131L12.1074 22.5859L11.9346 22.5547ZM10.1396 23.3828L9.73828 23.584L9.66016 24.0244L9.96582 24.3516L10.1396 24.3828L10.54 24.1826L10.6191 23.7412L10.3125 23.4141L10.1396 23.3828Z" fill="#E4B564"/>
</svg>
