<svg width="40" height="40" viewBox="0 0 40 40" fill="none" xmlns="http://www.w3.org/2000/svg">
<path d="M8.53516 6.30307C8.41992 6.29916 8.30664 6.31283 8.19531 6.33627C7.5332 6.4808 7 7.0726 7 7.80307V11.5003C7 12.3226 7.67773 13.0003 8.5 13.0003H13.709C13.9297 13.5531 14.3711 14.0003 15 14.0003H16V15.5003H13C12.3711 15.5003 11.9297 15.9476 11.709 16.5003H7C6.82031 16.4984 6.65234 16.5921 6.56055 16.7484C6.4707 16.9046 6.4707 17.096 6.56055 17.2523C6.65234 17.4085 6.82031 17.5023 7 17.5003H11.5C11.5 17.7757 11.7246 18.0003 12 18.0003C12.2754 18.0003 12.5 17.7757 12.5 17.5003V17.0003C12.5 16.7171 12.7168 16.5003 13 16.5003H16.416C16.4707 16.5101 16.5254 16.5101 16.5781 16.5003H19.416C19.4707 16.5101 19.5254 16.5101 19.5781 16.5003H23C23.2832 16.5003 23.5 16.7171 23.5 17.0003V17.5003C23.5 17.7757 23.7246 18.0003 24 18.0003C24.2754 18.0003 24.5 17.7757 24.5 17.5003H27C32.252 17.5003 36.5 21.7484 36.5 27.0003V30.5003H37C37.2832 30.5003 37.5 30.7171 37.5 31.0003C37.5 31.2835 37.2832 31.5003 37 31.5003H29C28.7168 31.5003 28.5 31.2835 28.5 31.0003C28.5 30.7171 28.7168 30.5003 29 30.5003H29.5V28.0003C29.5 26.6253 28.375 25.5003 27 25.5003H24.5C24.5 25.2249 24.2754 25.0003 24 25.0003C23.7246 25.0003 23.5 25.2249 23.5 25.5003V26.0003C23.5 26.2835 23.2832 26.5003 23 26.5003H13C12.7168 26.5003 12.5 26.2835 12.5 26.0003V25.5003C12.5 25.2249 12.2754 25.0003 12 25.0003C11.7246 25.0003 11.5 25.2249 11.5 25.5003H7C6.82031 25.4984 6.65234 25.5921 6.56055 25.7484C6.4707 25.9046 6.4707 26.096 6.56055 26.2523C6.65234 26.4085 6.82031 26.5023 7 26.5003H11.709C11.9297 27.0531 12.3711 27.5003 13 27.5003H23C23.6289 27.5003 24.0703 27.0531 24.291 26.5003H27C27.834 26.5003 28.5 27.1664 28.5 28.0003V29.7093C27.9473 29.93 27.5 30.3714 27.5 31.0003C27.5 31.8226 28.1777 32.5003 29 32.5003H37C37.8223 32.5003 38.5 31.8226 38.5 31.0003C38.5 30.3714 38.0527 29.93 37.5 29.7093V27.0003C37.5 21.2074 32.793 16.5003 27 16.5003H24.291C24.0703 15.9476 23.6289 15.5003 23 15.5003H20V14.0003H21C21.6289 14.0003 22.0703 13.5531 22.291 13.0003H27.5C28.3223 13.0003 29 12.3226 29 11.5003V7.80307C29 6.82846 28.0527 6.1019 27.1133 6.3519L21.498 7.84994C20.9668 7.35385 20.2891 7.00033 19.5 7.00033H16.5C15.7109 7.00033 15.0332 7.35385 14.502 7.84994L8.88672 6.3519H8.88477C8.76758 6.32065 8.65039 6.30502 8.53516 6.30307ZM8.50781 7.29916C8.54688 7.30111 8.58789 7.30697 8.62891 7.31869L14.7754 8.95932L14.9824 8.71713C15.3516 8.27768 15.8867 8.00033 16.5 8.00033H19.5C20.1133 8.00033 20.6484 8.27963 21.0176 8.71713L21.2246 8.95932L27.3711 7.31869C27.6992 7.2308 28 7.46127 28 7.80307V11.5003C28 11.7835 27.7832 12.0003 27.5 12.0003H22.5C22.5 11.7249 22.2754 11.5003 22 11.5003C21.7246 11.5003 21.5 11.7249 21.5 12.0003V12.5003C21.5 12.7835 21.2832 13.0003 21 13.0003H19.5781C19.5488 12.9964 19.5215 12.9925 19.4922 12.9925C19.4688 12.9945 19.4434 12.9964 19.4199 13.0003H16.5781C16.5488 12.9964 16.5215 12.9925 16.4922 12.9925C16.4688 12.9945 16.4434 12.9964 16.4199 13.0003H15C14.7168 13.0003 14.5 12.7835 14.5 12.5003V12.0003C14.5 11.7249 14.2754 11.5003 14 11.5003C13.7246 11.5003 13.5 11.7249 13.5 12.0003H8.5C8.2168 12.0003 8 11.7835 8 11.5003V7.80307C8 7.50424 8.23047 7.2894 8.50781 7.29916ZM14 9.50033C13.7246 9.50033 13.5 9.72494 13.5 10.0003C13.5 10.2757 13.7246 10.5003 14 10.5003C14.2754 10.5003 14.5 10.2757 14.5 10.0003C14.5 9.72494 14.2754 9.50033 14 9.50033ZM22 9.50033C21.7246 9.50033 21.5 9.72494 21.5 10.0003C21.5 10.2757 21.7246 10.5003 22 10.5003C22.2754 10.5003 22.5 10.2757 22.5 10.0003C22.5 9.72494 22.2754 9.50033 22 9.50033ZM17 14.0003H19V15.5003H17V14.0003ZM3 16.5003C2.72461 16.5003 2.5 16.7249 2.5 17.0003C2.5 17.2757 2.72461 17.5003 3 17.5003C3.27539 17.5003 3.5 17.2757 3.5 17.0003C3.5 16.7249 3.27539 16.5003 3 16.5003ZM5 16.5003C4.72461 16.5003 4.5 16.7249 4.5 17.0003C4.5 17.2757 4.72461 17.5003 5 17.5003C5.27539 17.5003 5.5 17.2757 5.5 17.0003C5.5 16.7249 5.27539 16.5003 5 16.5003ZM12 19.0003C11.7246 19.0003 11.5 19.2249 11.5 19.5003C11.5 19.7757 11.7246 20.0003 12 20.0003C12.2754 20.0003 12.5 19.7757 12.5 19.5003C12.5 19.2249 12.2754 19.0003 12 19.0003ZM24 19.0003C23.7246 19.0003 23.5 19.2249 23.5 19.5003C23.5 19.7757 23.7246 20.0003 24 20.0003C24.2754 20.0003 24.5 19.7757 24.5 19.5003C24.5 19.2249 24.2754 19.0003 24 19.0003ZM12 21.0003C11.7246 21.0003 11.5 21.2249 11.5 21.5003C11.5 21.7757 11.7246 22.0003 12 22.0003C12.2754 22.0003 12.5 21.7757 12.5 21.5003C12.5 21.2249 12.2754 21.0003 12 21.0003ZM24 21.0003C23.7246 21.0003 23.5 21.2249 23.5 21.5003C23.5 21.7757 23.7246 22.0003 24 22.0003C24.2754 22.0003 24.5 21.7757 24.5 21.5003C24.5 21.2249 24.2754 21.0003 24 21.0003ZM12 23.0003C11.7246 23.0003 11.5 23.2249 11.5 23.5003C11.5 23.7757 11.7246 24.0003 12 24.0003C12.2754 24.0003 12.5 23.7757 12.5 23.5003C12.5 23.2249 12.2754 23.0003 12 23.0003ZM24 23.0003C23.7246 23.0003 23.5 23.2249 23.5 23.5003C23.5 23.7757 23.7246 24.0003 24 24.0003C24.2754 24.0003 24.5 23.7757 24.5 23.5003C24.5 23.2249 24.2754 23.0003 24 23.0003ZM3 25.5003C2.72461 25.5003 2.5 25.7249 2.5 26.0003C2.5 26.2757 2.72461 26.5003 3 26.5003C3.27539 26.5003 3.5 26.2757 3.5 26.0003C3.5 25.7249 3.27539 25.5003 3 25.5003ZM5 25.5003C4.72461 25.5003 4.5 25.7249 4.5 26.0003C4.5 26.2757 4.72461 26.5003 5 26.5003C5.27539 26.5003 5.5 26.2757 5.5 26.0003C5.5 25.7249 5.27539 25.5003 5 25.5003ZM31 29.5003C30.7246 29.5003 30.5 29.7249 30.5 30.0003C30.5 30.2757 30.7246 30.5003 31 30.5003C31.2754 30.5003 31.5 30.2757 31.5 30.0003C31.5 29.7249 31.2754 29.5003 31 29.5003ZM33 29.5003C32.7246 29.5003 32.5 29.7249 32.5 30.0003C32.5 30.2757 32.7246 30.5003 33 30.5003C33.2754 30.5003 33.5 30.2757 33.5 30.0003C33.5 29.7249 33.2754 29.5003 33 29.5003ZM35 29.5003C34.7246 29.5003 34.5 29.7249 34.5 30.0003C34.5 30.2757 34.7246 30.5003 35 30.5003C35.2754 30.5003 35.5 30.2757 35.5 30.0003C35.5 29.7249 35.2754 29.5003 35 29.5003ZM33.5 34.0003C33.5 34.0003 32.5 35.9476 32.5 36.5003C32.5 37.0531 32.9473 37.5003 33.5 37.5003C34.0527 37.5003 34.5 37.0531 34.5 36.5003C34.5 35.9476 33.5 34.0003 33.5 34.0003Z" fill="#E4B564"/>
</svg>
