<svg width="40" height="40" viewBox="0 0 40 40" fill="none" xmlns="http://www.w3.org/2000/svg">
<path d="M5.50005 4C5.22466 4 5.00005 4.22461 5.00005 4.5C5.00005 4.77539 5.22466 5 5.50005 5C5.77544 5 6.00005 4.77539 6.00005 4.5C6.00005 4.22461 5.77544 4 5.50005 4ZM14.5001 4C14.2247 4 14.0001 4.22461 14.0001 4.5C14.0001 4.77539 14.2247 5 14.5001 5C14.7754 5 15.0001 4.77539 15.0001 4.5C15.0001 4.22461 14.7754 4 14.5001 4ZM5.50005 6C5.22466 6 5.00005 6.22461 5.00005 6.5C5.00005 6.77539 5.22466 7 5.50005 7C5.77544 7 6.00005 6.77539 6.00005 6.5C6.00005 6.22461 5.77544 6 5.50005 6ZM14.5001 6C14.2247 6 14.0001 6.22461 14.0001 6.5C14.0001 6.77539 14.2247 7 14.5001 7C14.7754 7 15.0001 6.77539 15.0001 6.5C15.0001 6.22461 14.7754 6 14.5001 6ZM5.49224 7.99219C5.21685 7.99805 4.99615 8.22461 5.00005 8.5V12C5.00005 18.8984 10.6016 24.5 17.5001 24.5H17.709C17.9297 25.0527 18.3711 25.5 19.0001 25.5C19.629 25.5 20.0704 25.0527 20.2911 24.5H23.5C24.334 24.5 25 25.166 25 26V32.5H35V27C35 20.1016 29.3985 14.5 22.5 14.5H20.2911C20.0704 13.9473 19.629 13.5 19.0001 13.5C18.3711 13.5 17.9297 13.9473 17.709 14.5H16.5001C15.6661 14.5 15.0001 13.834 15.0001 13V8.5C15.002 8.32031 14.9083 8.15234 14.752 8.06055C14.5958 7.9707 14.4043 7.9707 14.2481 8.06055C14.0918 8.15234 13.9981 8.32031 14.0001 8.5V13C14.0001 14.375 15.1251 15.5 16.5001 15.5H17.5001C17.5001 15.7754 17.7247 16 18.0001 16C18.2754 16 18.5001 15.7754 18.5001 15.5V15C18.5001 14.7168 18.7168 14.5 19.0001 14.5C19.2833 14.5 19.5001 14.7168 19.5001 15V15.5C19.5001 15.7754 19.7247 16 20.0001 16C20.2754 16 20.5001 15.7754 20.5001 15.5H22.5C28.8575 15.5 34 20.6426 34 27V31.5H26V26C26 24.625 24.875 23.5 23.5 23.5H20.5001C20.5001 23.2246 20.2754 23 20.0001 23C19.7247 23 19.5001 23.2246 19.5001 23.5V24C19.5001 24.2832 19.2833 24.5 19.0001 24.5C18.7168 24.5 18.5001 24.2832 18.5001 24V23.5C18.5001 23.2246 18.2754 23 18.0001 23C17.7247 23 17.5001 23.2246 17.5001 23.5C11.1426 23.5 6.00005 18.3574 6.00005 12V8.5C6.002 8.36523 5.94927 8.23438 5.85357 8.13867C5.75786 8.04297 5.627 7.99023 5.49224 7.99219ZM18.0001 17C17.7247 17 17.5001 17.2246 17.5001 17.5C17.5001 17.7754 17.7247 18 18.0001 18C18.2754 18 18.5001 17.7754 18.5001 17.5C18.5001 17.2246 18.2754 17 18.0001 17ZM20.0001 17C19.7247 17 19.5001 17.2246 19.5001 17.5C19.5001 17.7754 19.7247 18 20.0001 18C20.2754 18 20.5001 17.7754 20.5001 17.5C20.5001 17.2246 20.2754 17 20.0001 17ZM18.0001 19C17.7247 19 17.5001 19.2246 17.5001 19.5C17.5001 19.7754 17.7247 20 18.0001 20C18.2754 20 18.5001 19.7754 18.5001 19.5C18.5001 19.2246 18.2754 19 18.0001 19ZM20.0001 19C19.7247 19 19.5001 19.2246 19.5001 19.5C19.5001 19.7754 19.7247 20 20.0001 20C20.2754 20 20.5001 19.7754 20.5001 19.5C20.5001 19.2246 20.2754 19 20.0001 19ZM18.0001 21C17.7247 21 17.5001 21.2246 17.5001 21.5C17.5001 21.7754 17.7247 22 18.0001 22C18.2754 22 18.5001 21.7754 18.5001 21.5C18.5001 21.2246 18.2754 21 18.0001 21ZM20.0001 21C19.7247 21 19.5001 21.2246 19.5001 21.5C19.5001 21.7754 19.7247 22 20.0001 22C20.2754 22 20.5001 21.7754 20.5001 21.5C20.5001 21.2246 20.2754 21 20.0001 21ZM30 34C30 34 29 35.9473 29 36.5C29 37.0527 29.4473 37.5 30 37.5C30.5528 37.5 31 37.0527 31 36.5C31 35.9473 30 34 30 34Z" fill="#E4B564"/>
</svg>
