<svg width="40" height="40" viewBox="0 0 40 40" fill="none" xmlns="http://www.w3.org/2000/svg">
<path d="M14 2.5L13.5996 2.70117L13.5205 3.1416L13.8262 3.46875L14 3.5L14.4004 3.29883L14.4795 2.8584L14.1738 2.53125L14 2.5ZM18 2.5L17.5996 2.70117L17.5205 3.1416L17.8262 3.46875L18 3.5L18.4004 3.29883L18.4795 2.8584L18.1738 2.53125L18 2.5ZM22 2.5L21.5996 2.70117L21.5205 3.1416L21.8262 3.46875L22 3.5L22.4004 3.29883L22.4795 2.8584L22.1738 2.53125L22 2.5ZM25.5 2.5L25.0996 2.70117L25.0205 3.1416L25.3262 3.46875L25.5 3.5L25.9004 3.29883L25.9795 2.8584L25.6738 2.53125L25.5 2.5ZM13.3564 4.39258L12.9561 4.59277L12.877 5.03418L13.1826 5.36133L13.3564 5.39258L13.7568 5.19141L13.8359 4.75L13.5303 4.42285L13.3564 4.39258ZM17.3564 4.39258L16.9561 4.59277L16.877 5.03418L17.1826 5.36133L17.3564 5.39258L17.7568 5.19141L17.8359 4.75L17.5303 4.42285L17.3564 4.39258ZM21.3564 4.39258L20.9561 4.59277L20.877 5.03418L21.1826 5.36133L21.3564 5.39258L21.7568 5.19141L21.8359 4.75L21.5303 4.42285L21.3564 4.39258ZM24.8564 4.39258L24.4561 4.59277L24.377 5.03418L24.6826 5.36133L24.8564 5.39258L25.2568 5.19141L25.3359 4.75L25.0303 4.42285L24.8564 4.39258ZM13.1631 6.36621L12.7617 6.56641L12.6836 7.00781L12.9893 7.33496L13.1631 7.36621L13.5635 7.16504L13.6426 6.72461L13.3359 6.39746L13.1631 6.36621ZM17.1631 6.36621L16.7617 6.56641L16.6836 7.00781L16.9893 7.33496L17.1631 7.36621L17.5635 7.16504L17.6426 6.72461L17.3359 6.39746L17.1631 6.36621ZM21.1631 6.36621L20.7617 6.56641L20.6836 7.00781L20.9893 7.33496L21.1631 7.36621L21.5635 7.16504L21.6426 6.72461L21.3359 6.39746L21.1631 6.36621ZM24.6631 6.36621L24.2617 6.56641L24.1836 7.00781L24.4893 7.33496L24.6631 7.36621L25.0635 7.16504L25.1426 6.72461L24.8359 6.39746L24.6631 6.36621ZM14.7051 7.33691L14.3047 7.53809L14.2256 7.97852L14.5312 8.30566L14.7051 8.33691L15.1055 8.13672L15.1846 7.69531L14.8789 7.36816L14.7051 7.33691ZM18.7051 7.33691L18.3047 7.53809L18.2256 7.97852L18.5312 8.30566L18.7051 8.33691L19.1055 8.13672L19.1846 7.69531L18.8789 7.36816L18.7051 7.33691ZM22.7051 7.33691L22.3047 7.53809L22.2256 7.97852L22.5312 8.30566L22.7051 8.33691L23.1055 8.13672L23.1846 7.69531L22.8789 7.36816L22.7051 7.33691ZM26.2051 7.33691L25.8047 7.53809L25.7256 7.97852L26.0312 8.30566L26.2051 8.33691L26.6055 8.13672L26.6846 7.69531L26.3789 7.36816L26.2051 7.33691ZM15.3584 9.05957L14.957 9.26074L14.8789 9.70117L15.1846 10.0283L15.3584 10.0596L15.7588 9.85938L15.8379 9.41797L15.5312 9.09082L15.3584 9.05957ZM19.3584 9.05957L18.957 9.26074L18.8789 9.70117L19.1846 10.0283L19.3584 10.0596L19.7588 9.85938L19.8379 9.41797L19.5312 9.09082L19.3584 9.05957ZM23.3584 9.05957L22.957 9.26074L22.8789 9.70117L23.1846 10.0283L23.3584 10.0596L23.7588 9.85938L23.8379 9.41797L23.5312 9.09082L23.3584 9.05957ZM26.8584 9.05957L26.457 9.26074L26.3789 9.70117L26.6846 10.0283L26.8584 10.0596L27.2588 9.85938L27.3379 9.41797L27.0312 9.09082L26.8584 9.05957ZM14.8721 10.9961L14.4717 11.1973L14.3926 11.6377L14.6992 11.9648L14.8721 11.9961L15.2734 11.7959L15.3516 11.3545L15.0459 11.0273L14.8721 10.9961ZM18.8721 10.9961L18.4717 11.1973L18.3926 11.6377L18.6992 11.9648L18.8721 11.9961L19.2734 11.7959L19.3516 11.3545L19.0459 11.0273L18.8721 10.9961ZM22.8721 10.9961L22.4717 11.1973L22.3926 11.6377L22.6992 11.9648L22.8721 11.9961L23.2734 11.7959L23.3516 11.3545L23.0459 11.0273L22.8721 10.9961ZM26.3721 10.9961L25.9717 11.1973L25.8926 11.6377L26.1992 11.9648L26.3721 11.9961L26.7734 11.7959L26.8516 11.3545L26.5459 11.0273L26.3721 10.9961ZM11.25 13.3994L10.9727 13.584C10.9727 13.584 10.383 13.9762 9.78711 14.5225C9.19123 15.0687 8.5 15.7292 8.5 16.625V18H7.40039C6.89809 18 6.5 18.4276 6.5 18.917V20.584C6.5 21.0734 6.89809 21.5 7.40039 21.5H8.5V25.25V28.5H7.40039C6.89809 28.5 6.5 28.9276 6.5 29.417V31.084C6.5 31.5734 6.89809 32 7.40039 32H8.5V33.375C8.5 34.2708 9.19123 34.9313 9.78711 35.4775C10.383 36.0238 10.9727 36.416 10.9727 36.416L11.25 36.6006L11.5273 36.416C11.5273 36.416 12.117 36.0238 12.7129 35.4775C12.9833 35.2296 13.2638 34.9489 13.5 34.6426C13.7362 34.9489 14.0167 35.2296 14.2871 35.4775C14.883 36.0238 15.4727 36.416 15.4727 36.416L15.75 36.6006L16.0273 36.416C16.0273 36.416 16.617 36.0238 17.2129 35.4775C17.4833 35.2296 17.7638 34.9489 18 34.6426C18.2362 34.9489 18.5167 35.2296 18.7871 35.4775C19.383 36.0238 19.9727 36.416 19.9727 36.416L20.25 36.6006L20.5273 36.416C20.5273 36.416 21.117 36.0238 21.7129 35.4775C21.9833 35.2296 22.2638 34.9489 22.5 34.6426C22.7362 34.9489 23.0167 35.2296 23.2871 35.4775C23.883 36.0238 24.4727 36.416 24.4727 36.416L24.75 36.6006L25.0273 36.416C25.0273 36.416 25.617 36.0238 26.2129 35.4775C26.4833 35.2296 26.7638 34.9489 27 34.6426C27.2362 34.9489 27.5167 35.2296 27.7871 35.4775C28.383 36.0238 28.9727 36.416 28.9727 36.416L29.25 36.6006L29.5273 36.416C29.5273 36.416 30.117 36.0238 30.7129 35.4775C31.3088 34.9313 32 34.2708 32 33.375V32H33C33.0663 32.0009 33.132 31.9887 33.1935 31.964C33.255 31.9393 33.311 31.9026 33.3582 31.8561C33.4053 31.8096 33.4428 31.7541 33.4684 31.693C33.4939 31.6319 33.5071 31.5663 33.5071 31.5C33.5071 31.4337 33.4939 31.3681 33.4684 31.307C33.4428 31.2459 33.4053 31.1904 33.3582 31.1439C33.311 31.0974 33.255 31.0607 33.1935 31.036C33.132 31.0113 33.0663 30.9991 33 31H32V29.5H33C33.0663 29.5009 33.132 29.4887 33.1935 29.464C33.255 29.4393 33.311 29.4026 33.3582 29.3561C33.4053 29.3096 33.4428 29.2541 33.4684 29.193C33.4939 29.1319 33.5071 29.0663 33.5071 29C33.5071 28.9337 33.4939 28.8681 33.4684 28.807C33.4428 28.7459 33.4053 28.6904 33.3582 28.6439C33.311 28.5974 33.255 28.5607 33.1935 28.536C33.132 28.5113 33.0663 28.4991 33 28.5H32V25.25V21.5H33C33.0663 21.5009 33.132 21.4887 33.1935 21.464C33.255 21.4393 33.311 21.4026 33.3582 21.3561C33.4053 21.3096 33.4428 21.2541 33.4684 21.193C33.4939 21.1319 33.5071 21.0663 33.5071 21C33.5071 20.9337 33.4939 20.8681 33.4684 20.807C33.4428 20.7459 33.4053 20.6904 33.3582 20.6439C33.311 20.5974 33.255 20.5607 33.1935 20.536C33.132 20.5113 33.0663 20.4991 33 20.5H32V19H33C33.0663 19.0009 33.132 18.9887 33.1935 18.964C33.255 18.9393 33.311 18.9026 33.3582 18.8561C33.4053 18.8096 33.4428 18.7541 33.4684 18.693C33.4939 18.6319 33.5071 18.5663 33.5071 18.5C33.5071 18.4337 33.4939 18.3681 33.4684 18.307C33.4428 18.2459 33.4053 18.1904 33.3582 18.1439C33.311 18.0974 33.255 18.0607 33.1935 18.036C33.132 18.0113 33.0663 17.9991 33 18H32V16.625C32 15.7292 31.3088 15.0687 30.7129 14.5225C30.117 13.9762 29.5273 13.584 29.5273 13.584L29.25 13.3994L28.9727 13.584C28.9727 13.584 28.383 13.9762 27.7871 14.5225C27.5167 14.7704 27.2362 15.0511 27 15.3574C26.7638 15.0511 26.4833 14.7704 26.2129 14.5225C25.617 13.9762 25.0273 13.584 25.0273 13.584L24.75 13.3994L24.4727 13.584C24.4727 13.584 23.9244 13.9488 23.3525 14.4629C23.0596 14.7263 22.7462 15.0185 22.4941 15.3525C22.2628 15.0456 21.9826 14.7697 21.7129 14.5225C21.117 13.9762 20.5273 13.584 20.5273 13.584L20.25 13.3994L19.9727 13.584C19.9727 13.584 19.383 13.9762 18.7871 14.5225C18.5164 14.7706 18.2285 15.0439 17.9922 15.3506C17.7611 15.0445 17.4819 14.7691 17.2129 14.5225C16.617 13.9762 16.0273 13.584 16.0273 13.584L15.75 13.3994L15.4727 13.584C15.4727 13.584 14.883 13.9762 14.2871 14.5225C14.0167 14.7704 13.7362 15.0511 13.5 15.3574C13.2638 15.0511 12.9833 14.7704 12.7129 14.5225C12.117 13.9762 11.5273 13.584 11.5273 13.584L11.25 13.3994ZM24.749 14.6348C24.9278 14.7609 25.1454 14.8997 25.5371 15.2588C26.0662 15.7438 26.5 16.3958 26.5 16.625H27.5C27.5 16.3958 27.9338 15.7438 28.4629 15.2588C28.8541 14.9002 29.0709 14.7622 29.25 14.6357C29.4291 14.7622 29.6459 14.9002 30.0371 15.2588C30.5662 15.7438 31 16.3958 31 16.625V18V21.5V25.25V28.5V32V33.375C31 33.6042 30.5662 34.2562 30.0371 34.7412C29.6459 35.0998 29.4291 35.2378 29.25 35.3643C29.0709 35.2378 28.8541 35.0998 28.4629 34.7412C27.9338 34.2562 27.5 33.6042 27.5 33.375H26.5C26.5 33.6042 26.0662 34.2562 25.5371 34.7412C25.1459 35.0998 24.9291 35.2378 24.75 35.3643C24.5709 35.2378 24.3541 35.0998 23.9629 34.7412C23.4338 34.2562 23 33.6042 23 33.375H22C22 33.6042 21.5662 34.2562 21.0371 34.7412C20.6459 35.0998 20.4291 35.2378 20.25 35.3643C20.0709 35.2378 19.8541 35.0998 19.4629 34.7412C18.9338 34.2562 18.5 33.6042 18.5 33.375H17.5C17.5 33.6042 17.0662 34.2562 16.5371 34.7412C16.1459 35.0998 15.9291 35.2378 15.75 35.3643C15.5709 35.2378 15.3541 35.0998 14.9629 34.7412C14.4338 34.2562 14 33.6042 14 33.375H13C13 33.6042 12.5662 34.2562 12.0371 34.7412C11.6459 35.0998 11.4291 35.2378 11.25 35.3643C11.0709 35.2378 10.8541 35.0998 10.4629 34.7412C9.93377 34.2562 9.5 33.6042 9.5 33.375V25.25V16.625C9.5 16.3958 9.93377 15.7438 10.4629 15.2588C10.8541 14.9002 11.0709 14.7622 11.25 14.6357C11.4291 14.7622 11.6459 14.9002 12.0371 15.2588C12.5662 15.7438 13 16.3958 13 16.625H14C14 16.3958 14.4338 15.7438 14.9629 15.2588C15.3541 14.9002 15.5709 14.7622 15.75 14.6357C15.9291 14.7622 16.1459 14.9002 16.5371 15.2588C17.0662 15.7438 17.5 16.3958 17.5 16.625H18.5C18.5 16.3958 18.9338 15.7438 19.4629 15.2588C19.8541 14.9002 20.0709 14.7622 20.25 14.6357C20.4291 14.7622 20.6459 14.9002 21.0371 15.2588C21.5662 15.7438 22 16.3958 22 16.625H23C23 16.6084 23.0012 16.5892 23.0039 16.5703L22.9795 16.5664C22.9795 16.5661 22.9795 16.5658 22.9795 16.5654L23.0039 16.5684C23.0421 16.2916 23.5111 15.6649 24.0215 15.2061C24.3906 14.8742 24.5772 14.7561 24.749 14.6348ZM13.5 17.5L13.0996 17.7012L13.0205 18.1416L13.3262 18.4688L13.5 18.5L13.9004 18.2988L13.9795 17.8584L13.6738 17.5312L13.5 17.5ZM18 17.5L17.5996 17.7012L17.5205 18.1416L17.8262 18.4688L18 18.5L18.4004 18.2988L18.4795 17.8584L18.1738 17.5312L18 17.5ZM22.5 17.5L22.0996 17.7012L22.0205 18.1416L22.3262 18.4688L22.5 18.5L22.9004 18.2988L22.9795 17.8584L22.6738 17.5312L22.5 17.5ZM27 17.5L26.5996 17.7012L26.5205 18.1416L26.8262 18.4688L27 18.5L27.4004 18.2988L27.4795 17.8584L27.1738 17.5312L27 17.5ZM35 18C34.8674 18 34.7402 18.0527 34.6464 18.1464C34.5527 18.2402 34.5 18.3674 34.5 18.5C34.5 18.6326 34.5527 18.7598 34.6464 18.8536C34.7402 18.9473 34.8674 19 35 19C35.1326 19 35.2598 18.9473 35.3536 18.8536C35.4473 18.7598 35.5 18.6326 35.5 18.5C35.5 18.3674 35.4473 18.2402 35.3536 18.1464C35.2598 18.0527 35.1326 18 35 18ZM7.5 19H8.5V20.5H7.5V19ZM13.5 19.5L13.0996 19.7012L13.0205 20.1416L13.3262 20.4688L13.5 20.5L13.9004 20.2988L13.9795 19.8584L13.6738 19.5312L13.5 19.5ZM18 19.5L17.5996 19.7012L17.5205 20.1416L17.8262 20.4688L18 20.5L18.4004 20.2988L18.4795 19.8584L18.1738 19.5312L18 19.5ZM22.5 19.5L22.0996 19.7012L22.0205 20.1416L22.3262 20.4688L22.5 20.5L22.9004 20.2988L22.9795 19.8584L22.6738 19.5312L22.5 19.5ZM27 19.5L26.5996 19.7012L26.5205 20.1416L26.8262 20.4688L27 20.5L27.4004 20.2988L27.4795 19.8584L27.1738 19.5312L27 19.5ZM35 20.5C34.8674 20.5 34.7402 20.5527 34.6464 20.6464C34.5527 20.7402 34.5 20.8674 34.5 21C34.5 21.1326 34.5527 21.2598 34.6464 21.3536C34.7402 21.4473 34.8674 21.5 35 21.5C35.1326 21.5 35.2598 21.4473 35.3536 21.3536C35.4473 21.2598 35.5 21.1326 35.5 21C35.5 20.8674 35.4473 20.7402 35.3536 20.6464C35.2598 20.5527 35.1326 20.5 35 20.5ZM13.5 21.5L13.0996 21.7012L13.0205 22.1416L13.3262 22.4688L13.5 22.5L13.9004 22.2988L13.9795 21.8584L13.6738 21.5312L13.5 21.5ZM18 21.5L17.5996 21.7012L17.5205 22.1416L17.8262 22.4688L18 22.5L18.4004 22.2988L18.4795 21.8584L18.1738 21.5312L18 21.5ZM22.5 21.5L22.0996 21.7012L22.0205 22.1416L22.3262 22.4688L22.5 22.5L22.9004 22.2988L22.9795 21.8584L22.6738 21.5312L22.5 21.5ZM27 21.5L26.5996 21.7012L26.5205 22.1416L26.8262 22.4688L27 22.5L27.4004 22.2988L27.4795 21.8584L27.1738 21.5312L27 21.5ZM13.5 23.5L13.0996 23.7012L13.0205 24.1416L13.3262 24.4688L13.5 24.5L13.9004 24.2988L13.9795 23.8584L13.6738 23.5312L13.5 23.5ZM18 23.5L17.5996 23.7012L17.5205 24.1416L17.8262 24.4688L18 24.5L18.4004 24.2988L18.4795 23.8584L18.1738 23.5312L18 23.5ZM22.5 23.5L22.0996 23.7012L22.0205 24.1416L22.3262 24.4688L22.5 24.5L22.9004 24.2988L22.9795 23.8584L22.6738 23.5312L22.5 23.5ZM27 23.5L26.5996 23.7012L26.5205 24.1416L26.8262 24.4688L27 24.5L27.4004 24.2988L27.4795 23.8584L27.1738 23.5312L27 23.5ZM13.5 25.5L13.0996 25.7012L13.0205 26.1416L13.3262 26.4688L13.5 26.5L13.9004 26.2988L13.9795 25.8584L13.6738 25.5312L13.5 25.5ZM18 25.5L17.5996 25.7012L17.5205 26.1416L17.8262 26.4688L18 26.5L18.4004 26.2988L18.4795 25.8584L18.1738 25.5312L18 25.5ZM22.5 25.5L22.0996 25.7012L22.0205 26.1416L22.3262 26.4688L22.5 26.5L22.9004 26.2988L22.9795 25.8584L22.6738 25.5312L22.5 25.5ZM27 25.5L26.5996 25.7012L26.5205 26.1416L26.8262 26.4688L27 26.5L27.4004 26.2988L27.4795 25.8584L27.1738 25.5312L27 25.5ZM13.5 27.5L13.0996 27.7012L13.0205 28.1416L13.3262 28.4688L13.5 28.5L13.9004 28.2988L13.9795 27.8584L13.6738 27.5312L13.5 27.5ZM18 27.5L17.5996 27.7012L17.5205 28.1416L17.8262 28.4688L18 28.5L18.4004 28.2988L18.4795 27.8584L18.1738 27.5312L18 27.5ZM22.5 27.5L22.0996 27.7012L22.0205 28.1416L22.3262 28.4688L22.5 28.5L22.9004 28.2988L22.9795 27.8584L22.6738 27.5312L22.5 27.5ZM27 27.5L26.5996 27.7012L26.5205 28.1416L26.8262 28.4688L27 28.5L27.4004 28.2988L27.4795 27.8584L27.1738 27.5312L27 27.5ZM35 28.5C34.8674 28.5 34.7402 28.5527 34.6464 28.6464C34.5527 28.7402 34.5 28.8674 34.5 29C34.5 29.1326 34.5527 29.2598 34.6464 29.3536C34.7402 29.4473 34.8674 29.5 35 29.5C35.1326 29.5 35.2598 29.4473 35.3536 29.3536C35.4473 29.2598 35.5 29.1326 35.5 29C35.5 28.8674 35.4473 28.7402 35.3536 28.6464C35.2598 28.5527 35.1326 28.5 35 28.5ZM7.5 29.5H8.5V31H7.5V29.5ZM13.5 29.5L13.0996 29.7012L13.0205 30.1416L13.3262 30.4688L13.5 30.5L13.9004 30.2988L13.9795 29.8584L13.6738 29.5312L13.5 29.5ZM18 29.5L17.5996 29.7012L17.5205 30.1416L17.8262 30.4688L18 30.5L18.4004 30.2988L18.4795 29.8584L18.1738 29.5312L18 29.5ZM22.5 29.5L22.0996 29.7012L22.0205 30.1416L22.3262 30.4688L22.5 30.5L22.9004 30.2988L22.9795 29.8584L22.6738 29.5312L22.5 29.5ZM27 29.5L26.5996 29.7012L26.5205 30.1416L26.8262 30.4688L27 30.5L27.4004 30.2988L27.4795 29.8584L27.1738 29.5312L27 29.5ZM35 31C34.8674 31 34.7402 31.0527 34.6464 31.1464C34.5527 31.2402 34.5 31.3674 34.5 31.5C34.5 31.6326 34.5527 31.7598 34.6464 31.8536C34.7402 31.9473 34.8674 32 35 32C35.1326 32 35.2598 31.9473 35.3536 31.8536C35.4473 31.7598 35.5 31.6326 35.5 31.5C35.5 31.3674 35.4473 31.2402 35.3536 31.1464C35.2598 31.0527 35.1326 31 35 31ZM13.5 31.5L13.0996 31.7012L13.0205 32.1416L13.3262 32.4688L13.5 32.5L13.9004 32.2988L13.9795 31.8584L13.6738 31.5312L13.5 31.5ZM18 31.5L17.5996 31.7012L17.5205 32.1416L17.8262 32.4688L18 32.5L18.4004 32.2988L18.4795 31.8584L18.1738 31.5312L18 31.5ZM22.5 31.5L22.0996 31.7012L22.0205 32.1416L22.3262 32.4688L22.5 32.5L22.9004 32.2988L22.9795 31.8584L22.6738 31.5312L22.5 31.5ZM27 31.5L26.5996 31.7012L26.5205 32.1416L26.8262 32.4688L27 32.5L27.4004 32.2988L27.4795 31.8584L27.1738 31.5312L27 31.5Z" fill="#E4B564"/>
</svg>
