<svg width="40" height="40" viewBox="0 0 40 40" fill="none" xmlns="http://www.w3.org/2000/svg">
<path d="M27.7588 11.4288C27.6422 11.4319 27.5303 11.4757 27.4426 11.5525C27.3548 11.6294 27.2967 11.7345 27.2782 11.8497C27.2598 11.9649 27.2822 12.083 27.3417 12.1834C27.4011 12.2838 27.4937 12.3603 27.6036 12.3996C29.0139 12.9292 30.1505 13.5926 30.9102 14.3097C31.6699 15.0268 32.045 15.7696 32.045 16.5275C32.045 17.2015 31.7498 17.8597 31.1485 18.506C30.5472 19.1522 29.6413 19.7661 28.4991 20.2853C26.2146 21.3237 22.9964 21.9855 19.4385 21.9855C15.8807 21.9855 12.6624 21.3237 10.378 20.2853C9.23575 19.7661 8.32986 19.1522 7.72856 18.506C7.12727 17.8597 6.83208 17.2015 6.83208 16.5275C6.83208 15.8526 7.12833 15.194 7.73149 14.547C8.33465 13.9 9.24332 13.2852 10.3887 12.7658C10.4507 12.7401 10.507 12.7023 10.5541 12.6545C10.6012 12.6067 10.6381 12.5499 10.6628 12.4874C10.6875 12.425 10.6993 12.3583 10.6977 12.2912C10.696 12.2241 10.6809 12.158 10.6531 12.0969C10.6254 12.0358 10.5856 11.9809 10.5362 11.9355C10.4868 11.8901 10.4288 11.8551 10.3656 11.8325C10.3024 11.81 10.2353 11.8005 10.1683 11.8044C10.1013 11.8084 10.0358 11.8258 9.97563 11.8556C8.74303 12.4146 7.72714 13.0844 7.00005 13.8644C6.27296 14.6444 5.83208 15.5549 5.83208 16.5275C5.83208 17.4987 6.27108 18.4084 6.99614 19.1876C7.7212 19.9669 8.73446 20.6366 9.96391 21.1954C12.4228 22.3132 15.7579 22.9855 19.4385 22.9855C23.1192 22.9855 26.4542 22.3132 28.9131 21.1954C30.1426 20.6366 31.1558 19.9669 31.8809 19.1876C32.606 18.4084 33.045 17.4987 33.045 16.5275C33.045 15.4354 32.4921 14.4273 31.5967 13.5822C30.7013 12.737 29.4553 12.0274 27.9551 11.464C27.8927 11.4392 27.826 11.4273 27.7588 11.4288ZM3.41216 17.6095C3.27972 17.6116 3.15351 17.6661 3.06124 17.7611C2.96896 17.8562 2.91816 17.9839 2.91997 18.1163C2.91997 19.2703 3.44007 20.3535 4.31255 21.2912C5.18503 22.2288 6.41234 23.0422 7.90532 23.7208C10.8913 25.078 14.9541 25.8976 19.4385 25.8976C23.9229 25.8976 27.9848 25.078 30.9707 23.7208C32.4637 23.0422 33.691 22.2288 34.5635 21.2912C35.436 20.3535 35.9561 19.2703 35.9561 18.1163C35.957 18.0501 35.9448 17.9843 35.9201 17.9228C35.8954 17.8613 35.8587 17.8054 35.8122 17.7582C35.7657 17.711 35.7102 17.6735 35.6491 17.648C35.588 17.6224 35.5224 17.6092 35.4561 17.6092C35.3898 17.6092 35.3242 17.6224 35.2631 17.648C35.202 17.6735 35.1465 17.711 35.1 17.7582C35.0535 17.8054 35.0168 17.8613 34.9921 17.9228C34.9674 17.9843 34.9552 18.0501 34.9561 18.1163C34.9561 18.9731 34.5798 19.8059 33.8311 20.6105C33.0824 21.4151 31.9634 22.1707 30.5577 22.8097C27.7461 24.0876 23.8001 24.8976 19.4385 24.8976C15.0769 24.8976 11.1299 24.0876 8.31841 22.8097C6.91264 22.1707 5.79368 21.4151 5.04497 20.6105C4.29626 19.8059 3.91997 18.9731 3.91997 18.1163C3.92088 18.0495 3.90837 17.9831 3.88316 17.9211C3.85795 17.8591 3.82057 17.8028 3.77321 17.7556C3.72586 17.7083 3.66951 17.671 3.60749 17.6459C3.54547 17.6209 3.47905 17.6085 3.41216 17.6095Z" fill="#E4B564"/>
<line x1="3.85742" y1="17.1426" x2="3.85742" y2="34.2854" stroke="#E4B564" stroke-width="2"/>
<line x1="35.8574" y1="17.1426" x2="35.8574" y2="34.2854" stroke="#E4B564" stroke-width="2"/>
<line x1="3.42871" y1="33.2856" x2="34.8573" y2="33.2856" stroke="#E4B564" stroke-width="2"/>
</svg>
