<svg width="23" height="29" viewBox="0 0 23 29" fill="none" xmlns="http://www.w3.org/2000/svg">
<path d="M5.30762 18.0992V18.432C5.30762 20.6435 6.45162 22.0472 7.45597 22.6242V14.2425C6.37642 14.7551 5.38012 14.9403 5.30762 18.0992Z" fill="#E4B564"/>
<path d="M9.69822 23.9582C10.0984 24.1649 10.5307 24.3769 10.9953 24.605V16.2394L11.9728 17.2163C12.2391 17.4848 12.3886 17.8474 12.3891 18.2255V24.5862C12.8536 24.3581 13.286 24.1434 13.6888 23.9367C13.9428 23.8054 14.1556 23.6067 14.3039 23.3624C14.4522 23.1181 14.5302 22.8376 14.5294 22.5519V17.7773C14.5297 17.4516 14.4656 17.1291 14.3407 16.8283C14.2158 16.5275 14.0326 16.2544 13.8016 16.0247L11.4894 13.7112L13.8016 11.3977C14.0323 11.1678 14.2154 10.8947 14.3403 10.5939C14.4651 10.2932 14.5294 9.97077 14.5294 9.64516V1.35471L12.381 0.549546V9.205C12.3806 9.58303 12.231 9.94564 11.9648 10.2141L10.9872 11.1911V0.525391L8.83887 1.33055V22.5626C8.8381 22.8521 8.91811 23.136 9.06992 23.3826C9.22172 23.6291 9.4393 23.8284 9.69822 23.9582Z" fill="#E4B564"/>
<path d="M22.4595 5.93849C22.4604 5.47894 22.321 5.03006 22.0599 4.65172C21.7989 4.27338 21.4287 3.98356 20.9986 3.82092L19.4035 3.21437V9.96161L18.0232 11.6095L18.0446 4.98572V2.69906L15.8963 1.8939V22.5597C17.3867 21.3251 18.0044 19.6826 18.0044 16.1184V14.9724L19.3874 13.3111V16.1184C19.3874 22.6966 17.188 23.7755 12.8026 25.9226C12.4266 26.1078 12.0399 26.2956 11.6425 26.4942C11.245 26.2956 10.8583 26.1078 10.4824 25.9226C6.09701 23.7755 3.89761 22.7019 3.89761 16.1184V5.50102L5.29137 4.96425V8.91759C5.36388 12.0765 6.36555 12.2617 7.43974 12.7743V1.86975L2.3105 3.82092C1.88044 3.98356 1.51021 4.27338 1.2492 4.65172C0.988188 5.03006 0.848795 5.47894 0.849613 5.93849V6.6524L1.76536 6.3035V16.0969C1.76536 24.0063 5.03088 25.6059 9.5532 27.8201C10.0715 28.0884 10.6086 28.338 11.1645 28.6252L11.6505 28.8748L12.1366 28.6252C12.6952 28.3407 13.2323 28.0884 13.7479 27.8201C18.2648 25.6059 21.5357 24.0063 21.5357 16.0969V6.31423L22.4515 6.66314L22.4595 5.93849Z" fill="#E4B564"/>
</svg>
