<svg width="79" height="35" viewBox="0 0 79 35" fill="none" xmlns="http://www.w3.org/2000/svg">
<g clip-path="url(#clip0)">
<path d="M14.4489 12.0705H12.2493C12.2493 11.9057 11.8317 10.6468 10.0644 10.6468C8.76991 10.6468 8.49567 11.3265 8.49567 11.7792C8.49567 12.8315 10.2495 13.0437 11.2945 13.3091C12.475 13.6083 14.7886 14.2213 14.7886 16.5539C14.7886 17.8478 14.0934 18.69 13.4794 19.1766C12.6691 19.8078 11.5372 20.1318 10.2111 20.1318C6.92921 20.1318 5.49479 18.2553 5.34131 16.4568H7.84335C7.89188 16.8576 8.39748 18.1887 10.2912 18.1887C11.9096 18.1887 12.1037 17.3307 12.1037 16.9739C12.1037 15.9555 10.6795 15.715 9.42448 15.3887C8.12775 15.05 5.90672 14.4979 5.90672 12.1021C5.90672 10.3374 7.18539 8.70374 10.1942 8.70374C14.0279 8.70486 14.4489 11.4947 14.4489 12.0705Z" fill="white"/>
<path d="M23.7768 17.2357C23.6605 17.8397 22.8773 20.1328 19.8268 20.1328C18.4668 20.1328 17.4635 19.5965 16.8485 18.9834C16.2819 18.4166 15.668 17.4107 15.668 15.8583C15.668 14.0462 16.476 13.0244 17.1227 12.4745C18.0786 11.6662 19.1135 11.5521 19.8414 11.5521C21.4113 11.5521 22.3988 12.2645 22.9484 12.9295C23.4506 13.5279 23.9032 14.5147 23.9032 15.9079V16.3279H18.2524C18.2524 17.4141 18.67 18.5149 19.9385 18.5149C21.0197 18.5149 21.4587 17.6816 21.5569 17.2357H23.7768ZM21.4282 14.9528C21.4282 14.5508 21.2465 13.1712 19.8742 13.1712C18.5029 13.1712 18.2524 14.3815 18.2524 14.9528H21.4282Z" fill="white"/>
<path d="M28.2179 11.7148H29.9322V13.4151H28.2179V17.1206C28.2179 17.4119 28.2179 17.7687 28.4764 18.043C28.6863 18.2542 28.9605 18.2858 29.2201 18.2858H30.1106V19.9872C29.5609 20.0663 28.8499 20.1329 28.3308 20.1329C27.7327 20.1329 26.9235 20.003 26.3885 19.4363C25.7757 18.7905 25.8073 17.9787 25.8073 17.1872V13.4151H24.5117V11.7148H25.8073L26.033 9.19031H28.2179V11.7148Z" fill="white"/>
<path d="M45.3844 19.9703H44.0244L43.6215 18.7577C43.345 19.1303 42.9726 19.4521 42.6171 19.6643C42.019 20.0042 41.2414 20.134 40.5631 20.134C39.5598 20.134 38.298 19.9218 37.2462 18.7577C36.2768 17.6885 35.7734 16.0052 35.7734 14.5656C35.7734 13.0911 36.1944 11.4405 37.1638 10.3227C38.3139 8.99612 39.7528 8.70483 40.9017 8.70483C44.2513 8.70483 45.1959 10.9414 45.3516 12.6226H42.8428C42.7954 12.2184 42.634 11.7329 42.3914 11.4077C42.1329 11.0521 41.6635 10.6479 40.8543 10.6479C40.2223 10.6479 39.4785 10.9064 38.9932 11.8458C38.8646 12.1043 38.5576 12.784 38.5576 14.4031C38.5576 15.3582 38.6694 16.4105 39.0745 17.0902C39.4153 17.6558 39.9954 18.1921 40.9502 18.1921C41.5506 18.1921 42.0348 17.9652 42.3587 17.6411C42.6814 17.3171 42.9263 16.7684 42.9263 16.1847V15.9081H40.7076V14.0135H45.3855V19.9703H45.3844Z" fill="white"/>
<path d="M47.1743 19.9703V11.7148H49.2791V13.5438H49.3118C49.3908 12.9127 49.7001 12.4758 49.91 12.25C50.1842 11.9587 50.7011 11.5533 51.543 11.5533C51.6897 11.5533 51.8353 11.5714 51.9809 11.5861V13.755H51.5927C51.1886 13.755 50.7993 13.8362 50.4912 14.0304C49.6989 14.5317 49.5849 15.3096 49.5849 16.1824V19.9692H47.1743V19.9703Z" fill="white"/>
<path d="M59.5996 12.6857C59.9878 13.0752 60.8286 14.0936 60.8286 15.8255C60.8286 17.1533 60.3117 18.3353 59.5353 19.0805C58.9698 19.6145 58.0467 20.1328 56.7364 20.1328C55.4239 20.1328 54.503 19.6145 53.9364 19.0805C53.16 18.3353 52.6431 17.1533 52.6431 15.8255C52.6431 14.0936 53.485 13.0741 53.8743 12.6857C54.8291 11.7463 55.9272 11.5521 56.7375 11.5521C57.5445 11.5521 58.6448 11.7463 59.5996 12.6857ZM55.5864 13.8192C55.197 14.4176 55.1654 15.2102 55.1654 15.8255C55.1654 16.9421 55.3426 17.4762 55.5379 17.8171C55.8448 18.3512 56.2996 18.5137 56.7364 18.5137C57.172 18.5137 57.6268 18.35 57.9338 17.8171C58.1291 17.4762 58.3062 16.9433 58.3062 15.8255C58.3062 15.2102 58.2746 14.4176 57.8864 13.8192C57.611 13.3823 57.2544 13.1712 56.7364 13.1712C56.2184 13.1712 55.8606 13.3834 55.5864 13.8192Z" fill="white"/>
<path d="M64.4257 11.7147V16.6847C64.4257 16.9907 64.4257 17.5744 64.6988 17.93C64.8772 18.1728 65.1841 18.3026 65.5227 18.3026C65.9109 18.3026 66.3319 18.1254 66.6084 17.7528C66.93 17.3328 66.9808 16.8326 66.9808 16.4104V11.7159H69.3903V19.9713H67.1569V18.4979H67.1264C66.7043 19.47 65.8624 20.1339 64.6514 20.1339C63.9055 20.1339 63.357 19.907 62.936 19.5491C62.1257 18.8694 62.0117 17.93 62.0117 17.0742V11.7159H64.4257V11.7147Z" fill="white"/>
<path d="M71.1528 22.6246V11.7148H73.3863V13.0425C73.8874 12.0716 74.8591 11.5533 75.894 11.5533C77.9175 11.5533 79.0009 13.318 79.0009 15.7635C79.0009 18.8706 77.3984 20.134 75.7969 20.134C74.8105 20.134 74.0679 19.7287 73.5646 18.9192V22.6258H71.1528V22.6246ZM73.5646 16.669C73.5646 17.8183 74.0973 18.515 74.9708 18.515C76.1705 18.515 76.4741 17.203 76.4741 15.8109C76.4741 13.9333 75.8928 13.1712 74.9708 13.1712C74.1131 13.1712 73.5646 13.9006 73.5646 14.8885V16.669Z" fill="white"/>
<path d="M34.3697 7.68188H31.9185V19.9454H34.3697V7.68188Z" fill="white"/>
<path d="M34.3581 7.6853H31.9058V19.9477H34.3581V7.6853Z" fill="white"/>
<path d="M0 0.330811V34.6692H34.3627V22.444H31.9081V32.2124H2.48624L2.47721 2.79662L31.9081 2.78758V5.24549H34.3627V0.330811H0Z" fill="white"/>
</g>
<defs>
<clipPath id="clip0">
<rect width="79" height="35" fill="white"/>
</clipPath>
</defs>
</svg>
