<svg width="40" height="40" viewBox="0 0 40 40" fill="none" xmlns="http://www.w3.org/2000/svg">
<path d="M21.4765 3.49415C21.2949 3.50391 21.1328 3.61133 21.0527 3.77735L19.1289 7.625C18.7187 7.72852 16.5175 8.34375 15.1015 11.0723L15.0879 11.0938L14.7148 12.0313C14.6562 12.0098 14.5937 12 14.5312 12C13.1679 12 11.957 12.6836 11.2265 13.7246L7.18552 19.0879L4.81442 20.0371C4.64059 20.0977 4.51559 20.248 4.4863 20.4297C4.457 20.6113 4.53122 20.793 4.67575 20.9043C4.82223 21.0176 5.01755 21.0391 5.18552 20.9629L7.68552 19.9629C7.7695 19.9297 7.84372 19.873 7.89841 19.8008L12.0371 14.3125C12.041 14.3066 12.0429 14.3027 12.0468 14.2969C12.5586 13.5664 13.3808 13.0762 14.3242 13.0137L12.3437 17.9766L8.97653 21.6016L9.33005 21.9414C9.33005 21.9414 9.69723 22.2949 10.3144 22.8887C11.1933 23.7305 12.4961 23.8086 13.7382 23.4746C14.9804 23.1406 16.2246 22.3984 17.164 21.4219C17.3886 21.1855 17.6836 20.7656 18.1035 20.1641C18.5254 19.5625 19.0312 18.8203 19.5175 18.0977C20.416 16.7637 21.1211 15.6914 21.248 15.5H32.5C32.5019 15.5 32.5019 15.5 32.5039 15.5C33.6113 15.502 34.5 16.3906 34.5 17.5C34.5 18.6094 33.6093 19.5 32.5 19.5H31.5C31.2265 19.5039 31.0078 19.7266 31.0078 20C31.0078 20.2734 31.2265 20.4961 31.5 20.5C32.6093 20.5 33.5 21.3906 33.5 22.5C33.5 23.6094 32.6093 24.5 31.5 24.5H31C30.7265 24.5039 30.5078 24.7266 30.5078 25C30.5078 25.2734 30.7265 25.4961 31 25.5C32.1093 25.5 33 26.3906 33 27.5C33 28.4531 32.3379 29.2383 31.4511 29.4434C31.2597 29.4883 31.1113 29.6387 31.0742 29.832C31.0351 30.0234 31.1113 30.2207 31.2715 30.3359C31.7129 30.6562 32 31.1641 32 31.75C32 32.7227 31.2226 33.5 30.25 33.5H27.5V32C27.5 30.625 26.375 29.5 25 29.5C24.1621 29.5 23.455 29.9434 23 30.5801C22.5449 29.9434 21.8379 29.5 21 29.5C20.1621 29.5 19.455 29.9434 19 30.5801C18.5449 29.9434 17.8379 29.5 17 29.5C16.1621 29.5 15.455 29.9434 15 30.5801C14.5449 29.9434 13.8379 29.5 13 29.5C11.625 29.5 10.5 30.625 10.5 32V33.5H4.99997C4.82028 33.498 4.65231 33.5918 4.56052 33.748C4.47067 33.9043 4.47067 34.0957 4.56052 34.252C4.65231 34.4082 4.82028 34.502 4.99997 34.5H10.7129C11.1015 35.3809 11.9804 36 13 36C13.8379 36 14.5449 35.5566 15 34.9199C15.455 35.5566 16.1621 36 17 36C17.8379 36 18.5449 35.5566 19 34.9199C19.455 35.5566 20.1621 36 21 36C21.8379 36 22.5449 35.5566 23 34.9199C23.455 35.5566 24.1621 36 25 36C26.0195 36 26.8984 35.3809 27.2871 34.5H30.25C31.7636 34.5 33 33.2637 33 31.75C33 31.1211 32.7343 30.5879 32.3769 30.125C33.332 29.623 34 28.6504 34 27.5C34 26.5391 33.5136 25.7188 32.8047 25.1699C33.7988 24.6777 34.5 23.6777 34.5 22.5C34.5 21.6211 34.1015 20.8477 33.4961 20.2969C34.6543 19.8828 35.5 18.7988 35.5 17.5C35.5 16.0781 34.5 14.8848 33.1679 14.5781L33.4043 13.8672C33.7793 12.7422 33.6035 11.5352 33.0234 10.5078L33.9746 7.65821C34.0273 7.50586 34.0039 7.33789 33.9121 7.20508C33.8183 7.07227 33.6679 6.99414 33.5058 6.99219C33.2871 6.99219 33.0918 7.13282 33.0254 7.3418L31.8066 11H32.1679C32.6054 11.7793 32.7422 12.6973 32.455 13.5527L32.1406 14.5H21.0683C20.8672 14.4668 20.666 14.5566 20.5605 14.7285C20.5605 14.7285 19.6582 16.0977 18.6875 17.5391C18.2031 18.2598 17.6992 18.998 17.2851 19.5898C16.8711 20.1816 16.5 20.668 16.4433 20.7285C15.6367 21.5664 14.5175 22.2305 13.4785 22.5078C12.4414 22.7871 11.5449 22.6816 11.0078 22.166C10.6132 21.7871 10.5371 21.7129 10.3769 21.5605L13.2031 18.5215L15.9922 11.5273C17.3515 8.91797 19.5976 8.49024 19.5976 8.49024L19.8379 8.44336L21.9472 4.22266C22.0293 4.06446 22.0215 3.87305 21.9238 3.72266C21.8261 3.57227 21.6562 3.48438 21.4765 3.49415ZM28.5 8.5C28.2246 8.5 28 8.72461 28 9C28 9.27539 28.2246 9.5 28.5 9.5C28.7754 9.5 29 9.27539 29 9C29 8.72461 28.7754 8.5 28.5 8.5ZM30.5 9C30.2246 9 30 9.22461 30 9.5C30 9.77539 30.2246 10 30.5 10C30.7754 10 31 9.77539 31 9.5C31 9.22461 30.7754 9 30.5 9ZM27.5 19.5C27.2246 19.5 27 19.7246 27 20C27 20.2754 27.2246 20.5 27.5 20.5C27.7754 20.5 28 20.2754 28 20C28 19.7246 27.7754 19.5 27.5 19.5ZM29.5 19.5C29.2246 19.5 29 19.7246 29 20C29 20.2754 29.2246 20.5 29.5 20.5C29.7754 20.5 30 20.2754 30 20C30 19.7246 29.7754 19.5 29.5 19.5ZM29 24.5C28.7246 24.5 28.5 24.7246 28.5 25C28.5 25.2754 28.7246 25.5 29 25.5C29.2754 25.5 29.5 25.2754 29.5 25C29.5 24.7246 29.2754 24.5 29 24.5ZM29.5 29.5C29.2246 29.5 29 29.7246 29 30C29 30.2754 29.2246 30.5 29.5 30.5C29.7754 30.5 30 30.2754 30 30C30 29.7246 29.7754 29.5 29.5 29.5ZM13 30.5C13.834 30.5 14.5 31.166 14.5 32C14.5039 32.2734 14.7265 32.4922 15 32.4922C15.2734 32.4922 15.4961 32.2734 15.5 32C15.5 31.166 16.166 30.5 17 30.5C17.834 30.5 18.5 31.166 18.5 32C18.5 32.0176 18.5019 32.0332 18.5019 32.0488C18.5058 32.082 18.5136 32.1152 18.5234 32.1484C18.5351 32.1797 18.5488 32.2109 18.5644 32.2402C18.58 32.2676 18.5996 32.2949 18.623 32.3203C18.6777 32.3848 18.7461 32.4316 18.8261 32.4609C18.8574 32.4727 18.8886 32.4824 18.9218 32.4863C18.9375 32.4902 18.955 32.4922 18.9707 32.4922C19.0058 32.4941 19.039 32.4922 19.0703 32.4883C19.0879 32.4863 19.1035 32.4824 19.1191 32.4785C19.1523 32.4707 19.1836 32.459 19.2148 32.4453C19.2304 32.4375 19.2441 32.4297 19.2578 32.4219C19.3007 32.3945 19.3398 32.3633 19.373 32.3262C19.3945 32.3008 19.414 32.2734 19.4316 32.2441C19.4648 32.1875 19.4882 32.123 19.4961 32.0566C19.498 32.0371 19.5 32.0195 19.5 32C19.5 31.166 20.166 30.5 21 30.5C21.834 30.5 22.5 31.166 22.5 32C22.5 32.0176 22.5019 32.0332 22.5019 32.0488C22.5058 32.0664 22.5078 32.084 22.5117 32.0996C22.541 32.2324 22.6211 32.3457 22.7343 32.418C22.75 32.4258 22.7636 32.4336 22.7793 32.4414C22.7949 32.4492 22.8086 32.4551 22.8261 32.4609C22.8574 32.4727 22.8886 32.4824 22.9218 32.4863C22.9375 32.4902 22.955 32.4922 22.9707 32.4922C22.9882 32.4922 23.0058 32.4922 23.0215 32.4922C23.0547 32.4902 23.0879 32.4863 23.1191 32.4785C23.1523 32.4707 23.1836 32.459 23.2148 32.4453C23.2441 32.4297 23.2734 32.4121 23.2988 32.3926C23.3125 32.3828 23.3261 32.373 23.3379 32.3613C23.3886 32.3164 23.4277 32.2617 23.455 32.2012C23.4629 32.1855 23.4687 32.1699 23.4746 32.1543C23.4785 32.1367 23.4843 32.1211 23.4863 32.1055C23.4902 32.0898 23.4941 32.0723 23.4961 32.0566C23.498 32.0371 23.5 32.0195 23.5 32C23.5 31.166 24.166 30.5 25 30.5C25.834 30.5 26.5 31.166 26.5 32V33.5C26.5 34.334 25.834 35 25 35C24.166 35 23.5 34.334 23.5 33.5C23.5 33.4824 23.498 33.4668 23.498 33.4512C23.4941 33.418 23.4863 33.3848 23.4765 33.3516C23.4648 33.3203 23.4511 33.2891 23.4355 33.2598C23.4199 33.2324 23.4004 33.2051 23.3769 33.1797C23.3457 33.1426 23.3066 33.1094 23.2656 33.082C23.25 33.0742 23.2363 33.0664 23.2207 33.0586C23.205 33.0508 23.1914 33.0449 23.1738 33.0391C23.1582 33.0332 23.1425 33.0273 23.1269 33.0234C23.0781 33.0117 23.0293 33.0059 22.9785 33.0078C22.9453 33.0098 22.9121 33.0137 22.8808 33.0215C22.8632 33.0254 22.8476 33.0312 22.832 33.0371C22.8164 33.041 22.8007 33.0488 22.7851 33.0547C22.7402 33.0762 22.6972 33.1055 22.6621 33.1387C22.625 33.1738 22.5937 33.2129 22.5683 33.2559C22.5605 33.2695 22.5527 33.2852 22.5449 33.2988C22.5371 33.3145 22.5312 33.3301 22.5254 33.3457C22.5215 33.3633 22.5156 33.3789 22.5136 33.3945C22.5058 33.4277 22.5 33.459 22.5 33.4922C22.5 33.4961 22.5 33.498 22.5 33.5C22.5 34.334 21.834 35 21 35C20.166 35 19.5 34.334 19.5 33.5C19.5 33.4824 19.498 33.4668 19.498 33.4512C19.4941 33.4336 19.4922 33.416 19.4882 33.4004C19.4804 33.3672 19.4707 33.3359 19.459 33.3047C19.4179 33.2129 19.3496 33.1348 19.2656 33.082C19.1347 33.002 18.9765 32.9844 18.832 33.0371C18.8007 33.0469 18.7695 33.0625 18.7422 33.0781C18.7129 33.0957 18.6855 33.1152 18.6621 33.1387C18.6367 33.1621 18.6152 33.1875 18.5937 33.2129C18.5859 33.2266 18.5761 33.2422 18.5683 33.2559C18.5605 33.2695 18.5527 33.2852 18.5449 33.2988C18.5312 33.3301 18.5195 33.3613 18.5136 33.3945C18.5058 33.4277 18.5 33.459 18.5 33.4922C18.5 33.4961 18.5 33.498 18.5 33.5C18.5 34.334 17.834 35 17 35C16.166 35 15.5 34.334 15.5 33.5C15.4961 33.2266 15.2734 33.0078 15 33.0078C14.7265 33.0078 14.5039 33.2266 14.5 33.5C14.5 34.334 13.834 35 13 35C12.166 35 11.5 34.334 11.5 33.5V32C11.5 31.166 12.166 30.5 13 30.5Z" fill="#E4B564"/>
</svg>
