<svg width="40" height="40" viewBox="0 0 40 40" fill="none" xmlns="http://www.w3.org/2000/svg">
<path d="M15.5 6.5C14.9531 6.5 14.5 6.95312 14.5 7.5V7.73633C11.418 8.42383 9.09961 11.0859 9.02734 14.3516C8.44336 14.7012 8 15.2715 8 16V17.5H9V19.2734H9.00195C9.00586 19.5566 9.08594 19.7793 9.15039 20C9.18359 20.1152 9.2168 20.2207 9.23633 20.2988C9.25781 20.377 9.25977 20.4551 9.25977 20.375C9.25977 21.002 9.79297 21.5 10.4121 21.5H10.5469C10.625 23.084 11.3652 24.4883 12.5 25.4375V27.084C11.7812 27.2539 10.1816 27.6699 8.5625 28.3184C7.47656 28.7539 6.37891 29.293 5.52148 29.9629C4.66211 30.6328 4 31.4746 4 32.5V35H28V32.5C28 31.9473 27.8027 31.4492 27.4902 31H36V29.0996C36 28.2207 35.4551 27.4883 34.7578 26.8867C34.0605 26.2852 33.1738 25.7852 32.2949 25.3691C30.7012 24.6191 29.2832 24.2051 29 24.125V23.5078C30.1094 22.7461 30.8457 21.4902 30.9453 20.0566H31.0137C31.5645 20.0566 32.0391 19.6133 32.0391 19.0527C32.0391 19.1426 32.0391 19.0781 32.0547 19.0156C32.0723 18.9551 32.0977 18.8711 32.125 18.7793C32.1699 18.6289 32.2148 18.4668 32.2344 18.2734H32.5V16.5H33.5V15C33.5 14.2598 33.0879 13.5898 32.4473 13.2441C32.1406 10.8066 30.3711 8.80273 28 8.19336V8C28 7.44922 27.5508 7 27 7H26C25.4492 7 25 7.44922 25 8V8.19531C24.1621 8.41016 23.4004 8.80273 22.75 9.32422C22.9531 9.58984 23.1445 9.86523 23.3145 10.1523C23.8184 9.73633 24.4082 9.41797 25.0527 9.22266C25.1367 9.39258 25.3105 9.5 25.5 9.5C25.7715 9.5 25.9941 9.2832 26 9.01172V8H27V9.01172C27.0078 9.2832 27.2285 9.5 27.5 9.5C27.6895 9.5 27.8633 9.39062 27.9473 9.2207C29.707 9.75195 31.0312 11.2129 31.3926 13.0117C31.1641 13.0625 31 13.2656 31 13.5C31 13.7754 31.2246 14 31.5 14C31.5371 14 31.5742 13.9961 31.6094 13.9863L31.8184 14.0586C32.2266 14.1973 32.5 14.5742 32.5 15V15.5H25.5V16.5H30V18.4453L30.668 18.0918C30.6797 18.0859 30.6914 18.0801 30.7051 18.0781C30.748 18.0703 30.8145 18.0625 30.8809 18.0566C30.9453 18.0508 31.0098 18.0449 31.0586 18.041C31.084 18.041 31.1035 18.0391 31.1172 18.0391H31.1191C31.207 18.0391 31.25 18.0898 31.25 18.1426C31.25 18.1211 31.2168 18.3242 31.166 18.4961C31.1406 18.582 31.1133 18.6699 31.0918 18.7559C31.0684 18.8398 31.0391 18.8926 31.0391 19.0527C31.0391 19.0508 31.0449 19.0566 31.0137 19.0566H30V19.75C30 21.502 28.7793 22.9336 27.125 23.2285L26.9844 23.2539L26.877 23.3516C26.7715 23.4453 26.6445 23.5 26.5 23.5C26.3555 23.5 26.2285 23.4453 26.123 23.3516L26.0156 23.2539L25.875 23.2285C25.5879 23.1777 25.2871 23.127 25 23.0781V23H24V24.9746L24.0527 25.0801C24.0527 25.0801 24.8047 26.5 26.5 26.5C28.0781 26.5 28.8086 25.3125 28.9062 25.1426C29.3613 25.2773 30.5059 25.6328 31.8672 26.2734C32.6973 26.666 33.5215 27.1406 34.1055 27.6445C34.6895 28.1484 35 28.6484 35 29.0996V30H26.5234C26.5098 29.9883 26.4941 29.9746 26.4785 29.9629C25.6211 29.293 24.5234 28.7539 23.4375 28.3184C21.8184 27.6699 20.2188 27.2539 19.5 27.084V25.4375C20.6348 24.4883 21.375 23.084 21.4531 21.5H21.5879C22.207 21.5 22.7402 21.002 22.7402 20.375C22.7402 20.4551 22.7422 20.377 22.7637 20.2988C22.7832 20.2207 22.8164 20.1152 22.8496 20C22.9141 19.7793 22.9941 19.5566 22.998 19.2734H23V17.5H24V16C24 15.2734 23.5566 14.7012 22.9746 14.3535C22.9023 11.0859 20.582 8.42383 17.5 7.73633V7.5C17.5 6.95312 17.0469 6.5 16.5 6.5H15.5ZM15.5 7.5H16.5V8.51367C16.5078 8.7832 16.7285 9 17 9C17.2031 9 17.3867 8.87695 17.4629 8.6875C19.9141 9.30078 21.7637 11.4121 21.9766 14C21.7109 14.0137 21.5 14.2324 21.5 14.5C21.5 14.7754 21.7246 15 22 15C22.0371 15 22.0762 14.9961 22.1113 14.9863L22.3262 15.0605C22.7188 15.1973 23 15.5586 23 16V16.5H9V16C9 15.5605 9.28125 15.1992 9.67383 15.0625L9.88672 14.9863C9.92383 14.9961 9.96094 15 10 15C10.2754 15 10.5 14.7754 10.5 14.5C10.5 14.2324 10.2891 14.0137 10.0234 14C10.2363 11.4121 12.0859 9.30273 14.5371 8.6875C14.6133 8.87695 14.7969 9 15 9C15.2715 9 15.4922 8.7832 15.5 8.51367V7.5ZM15 10C14.7246 10 14.5 10.2246 14.5 10.5C14.5 10.7754 14.7246 11 15 11C15.2754 11 15.5 10.7754 15.5 10.5C15.5 10.2246 15.2754 10 15 10ZM17 10C16.7246 10 16.5 10.2246 16.5 10.5C16.5 10.7754 16.7246 11 17 11C17.2754 11 17.5 10.7754 17.5 10.5C17.5 10.2246 17.2754 10 17 10ZM25.5 10.5C25.2246 10.5 25 10.7246 25 11C25 11.2754 25.2246 11.5 25.5 11.5C25.7754 11.5 26 11.2754 26 11C26 10.7246 25.7754 10.5 25.5 10.5ZM27.5 10.5C27.2246 10.5 27 10.7246 27 11C27 11.2754 27.2246 11.5 27.5 11.5C27.7754 11.5 28 11.2754 28 11C28 10.7246 27.7754 10.5 27.5 10.5ZM15 12C14.7246 12 14.5 12.2246 14.5 12.5C14.5 12.7754 14.7246 13 15 13C15.2754 13 15.5 12.7754 15.5 12.5C15.5 12.2246 15.2754 12 15 12ZM17 12C16.7246 12 16.5 12.2246 16.5 12.5C16.5 12.7754 16.7246 13 17 13C17.2754 13 17.5 12.7754 17.5 12.5C17.5 12.2246 17.2754 12 17 12ZM29.5 13C29.2246 13 29 13.2246 29 13.5C29 13.7754 29.2246 14 29.5 14C29.7754 14 30 13.7754 30 13.5C30 13.2246 29.7754 13 29.5 13ZM12 14C11.7246 14 11.5 14.2246 11.5 14.5C11.5 14.7754 11.7246 15 12 15C12.2754 15 12.5 14.7754 12.5 14.5C12.5 14.2246 12.2754 14 12 14ZM20 14C19.7246 14 19.5 14.2246 19.5 14.5C19.5 14.7754 19.7246 15 20 15C20.2754 15 20.5 14.7754 20.5 14.5C20.5 14.2246 20.2754 14 20 14ZM31 16.5H31.5V17.1094C31.3789 17.0645 31.252 17.0391 31.1191 17.0391C31.0645 17.0391 31.0801 17.0391 31.0605 17.0391C31.0449 17.041 31.0234 17.043 31 17.0449V16.5ZM10 17.5H10.5V18.0156C10.4766 18.0137 10.4492 18.0098 10.4297 18.0078C10.3965 18.0059 10.3691 18.0039 10.3477 18.002C10.3262 18.002 10.3379 18 10.2812 18C10.1855 18 10.0918 18.0137 10 18.0332V17.5ZM11.5 17.5H20.5V19.4219L21.1719 19.0703C21.1816 19.0645 21.207 19.0547 21.2324 19.0488C21.2852 19.041 21.3613 19.0312 21.4375 19.0234C21.5137 19.0176 21.5879 19.0098 21.6465 19.0059C21.6738 19.0039 21.6973 19.002 21.7129 19C21.7305 19 21.7676 19 21.7188 19C21.8906 19 22 19.1172 22 19.25C22 19.2578 21.9531 19.5039 21.8906 19.7188C21.8574 19.8281 21.8262 19.9355 21.7969 20.0371C21.7695 20.1387 21.7402 20.207 21.7402 20.375C21.7402 20.4375 21.6895 20.5 21.5879 20.5H20.5V21.2363C20.5 23.4551 18.9004 25.2871 16.7949 25.6621L16.6523 25.6875L16.5469 25.7852C16.3965 25.9199 16.2109 26 16 26C15.7891 26 15.6035 25.9199 15.4531 25.7852L15.3477 25.6875L15.2051 25.6621C13.0996 25.2871 11.5 23.457 11.5 21.2363V20.5H10.4121C10.3105 20.5 10.2598 20.4375 10.2598 20.375C10.2598 20.207 10.2305 20.1387 10.2031 20.0371C10.1738 19.9355 10.1426 19.8281 10.1094 19.7188C10.0469 19.5039 10 19.2578 10 19.25C10 19.1172 10.1094 19 10.2812 19C10.2324 19 10.2695 19 10.2852 19C10.3008 19.002 10.3262 19.0039 10.3535 19.0059C10.4121 19.0098 10.4863 19.0176 10.5625 19.0234C10.6387 19.0312 10.7148 19.041 10.7676 19.0488C10.7949 19.0547 10.8262 19.0684 10.834 19.0703L11.5 19.4219V17.5ZM21.5 17.5H22V18.0332C21.9082 18.0137 21.8145 18 21.7188 18C21.6621 18 21.6738 18.002 21.6523 18.002C21.6309 18.0039 21.6035 18.0059 21.5703 18.0078C21.5508 18.0098 21.5215 18.0137 21.5 18.0156V17.5ZM28.25 17.5C27.8359 17.5 27.5 17.8359 27.5 18.25C27.5 18.6641 27.8359 19 28.25 19C28.6641 19 29 18.6641 29 18.25C29 17.8359 28.6641 17.5 28.25 17.5ZM13.75 19C13.3359 19 13 19.3359 13 19.75C13 20.1641 13.3359 20.5 13.75 20.5C14.1641 20.5 14.5 20.1641 14.5 19.75C14.5 19.3359 14.1641 19 13.75 19ZM18.25 19C17.8359 19 17.5 19.3359 17.5 19.75C17.5 20.1641 17.8359 20.5 18.25 20.5C18.6641 20.5 19 20.1641 19 19.75C19 19.3359 18.6641 19 18.25 19ZM28 24.0195V24.7012C27.9414 24.8164 27.5723 25.5 26.5 25.5C25.4277 25.5 25.0586 24.8164 25 24.7012V24.0938C25.2383 24.1328 25.3652 24.1543 25.5859 24.1934C25.8418 24.3789 26.1562 24.5 26.5 24.5C26.8496 24.5 27.168 24.377 27.4258 24.1855C27.623 24.1426 27.8145 24.0859 28 24.0195ZM13.5 26.0996C13.9355 26.3242 14.4023 26.4961 14.8984 26.5977C15.2031 26.8359 15.5781 27 16 27C16.4219 27 16.7969 26.8359 17.1016 26.5977C17.5977 26.4961 18.0645 26.3242 18.5 26.0996V27.8281C18.4395 27.9492 17.7891 29.2012 16 29.2012C14.2109 29.2012 13.5605 27.9492 13.5 27.8281V26.0996ZM26.5 28C26.2246 28 26 28.2246 26 28.5C26 28.7754 26.2246 29 26.5 29C26.7754 29 27 28.7754 27 28.5C27 28.2246 26.7754 28 26.5 28ZM28.5 28C28.2246 28 28 28.2246 28 28.5C28 28.7754 28.2246 29 28.5 29C28.7754 29 29 28.7754 29 28.5C29 28.2246 28.7754 28 28.5 28ZM30.5 28C30.2246 28 30 28.2246 30 28.5C30 28.7754 30.2246 29 30.5 29C30.7754 29 31 28.7754 31 28.5C31 28.2246 30.7754 28 30.5 28ZM32.5 28C32.2246 28 32 28.2246 32 28.5C32 28.7754 32.2246 29 32.5 29C32.7754 29 33 28.7754 33 28.5C33 28.2246 32.7754 28 32.5 28ZM12.5059 28.1133L12.5527 28.209C12.5527 28.209 13.5898 30.2012 16 30.2012C18.4102 30.2012 19.4473 28.209 19.4473 28.209L19.4941 28.1133C20.2539 28.3008 21.6387 28.6738 23.0625 29.2461C24.1016 29.6621 25.1289 30.1777 25.8652 30.75C26.5996 31.3242 27 31.9141 27 32.5V34H5V32.5C5 31.9141 5.40039 31.3242 6.13477 30.75C6.87109 30.1777 7.89844 29.6621 8.9375 29.2461C10.3613 28.6738 11.7461 28.3008 12.5059 28.1133ZM7 32C6.72461 32 6.5 32.2246 6.5 32.5C6.5 32.7754 6.72461 33 7 33C7.27539 33 7.5 32.7754 7.5 32.5C7.5 32.2246 7.27539 32 7 32ZM9 32C8.72461 32 8.5 32.2246 8.5 32.5C8.5 32.7754 8.72461 33 9 33C9.27539 33 9.5 32.7754 9.5 32.5C9.5 32.2246 9.27539 32 9 32ZM11 32C10.7246 32 10.5 32.2246 10.5 32.5C10.5 32.7754 10.7246 33 11 33C11.2754 33 11.5 32.7754 11.5 32.5C11.5 32.2246 11.2754 32 11 32ZM13 32C12.7246 32 12.5 32.2246 12.5 32.5C12.5 32.7754 12.7246 33 13 33C13.2754 33 13.5 32.7754 13.5 32.5C13.5 32.2246 13.2754 32 13 32ZM15 32C14.7246 32 14.5 32.2246 14.5 32.5C14.5 32.7754 14.7246 33 15 33C15.2754 33 15.5 32.7754 15.5 32.5C15.5 32.2246 15.2754 32 15 32ZM17 32C16.7246 32 16.5 32.2246 16.5 32.5C16.5 32.7754 16.7246 33 17 33C17.2754 33 17.5 32.7754 17.5 32.5C17.5 32.2246 17.2754 32 17 32ZM19 32C18.7246 32 18.5 32.2246 18.5 32.5C18.5 32.7754 18.7246 33 19 33C19.2754 33 19.5 32.7754 19.5 32.5C19.5 32.2246 19.2754 32 19 32ZM21 32C20.7246 32 20.5 32.2246 20.5 32.5C20.5 32.7754 20.7246 33 21 33C21.2754 33 21.5 32.7754 21.5 32.5C21.5 32.2246 21.2754 32 21 32ZM23 32C22.7246 32 22.5 32.2246 22.5 32.5C22.5 32.7754 22.7246 33 23 33C23.2754 33 23.5 32.7754 23.5 32.5C23.5 32.2246 23.2754 32 23 32ZM25 32C24.7246 32 24.5 32.2246 24.5 32.5C24.5 32.7754 24.7246 33 25 33C25.2754 33 25.5 32.7754 25.5 32.5C25.5 32.2246 25.2754 32 25 32Z" fill="#E4B564"/>
</svg>
