<svg width="81" height="34" viewBox="0 0 81 34" fill="none" xmlns="http://www.w3.org/2000/svg">
<g clip-path="url(#clip0)">
<path d="M14.8147 11.7257H12.5594C12.5594 11.5655 12.1313 10.3426 10.3192 10.3426C8.99196 10.3426 8.71078 11.0029 8.71078 11.4427C8.71078 12.4649 10.509 12.6711 11.5805 12.9288C12.7909 13.2195 15.163 13.815 15.163 16.0809C15.163 17.3379 14.4502 18.156 13.8207 18.6288C12.9899 19.2419 11.8293 19.5566 10.4696 19.5566C7.10466 19.5566 5.63393 17.7338 5.47656 15.9866H8.04195C8.0917 16.376 8.61011 17.6691 10.5518 17.6691C12.2111 17.6691 12.4102 16.8355 12.4102 16.4889C12.4102 15.4997 10.9498 15.266 9.6631 14.9491C8.33355 14.62 6.05629 14.0837 6.05629 11.7564C6.05629 10.0421 7.36733 8.45508 10.4523 8.45508C14.3831 8.45617 14.8147 11.1663 14.8147 11.7257Z" fill="white"/>
<path d="M24.3785 16.7433C24.2593 17.3301 23.4563 19.5577 20.3285 19.5577C18.9342 19.5577 17.9055 19.0367 17.2748 18.4411C16.6939 17.8906 16.0645 16.9133 16.0645 15.4053C16.0645 13.6449 16.893 12.6524 17.556 12.1182C18.5361 11.3329 19.5972 11.2222 20.3436 11.2222C21.9532 11.2222 22.9657 11.9142 23.5292 12.5602C24.0441 13.1415 24.5081 14.1001 24.5081 15.4535V15.8615H18.7143C18.7143 16.9166 19.1425 17.986 20.4431 17.986C21.5516 17.986 22.0018 17.1766 22.1024 16.7433H24.3785ZM21.9705 14.5257C21.9705 14.1352 21.7842 12.7949 20.3771 12.7949C18.9712 12.7949 18.7143 13.9707 18.7143 14.5257H21.9705Z" fill="white"/>
<path d="M28.9319 11.3801H30.6896V13.0319H28.9319V16.6315C28.9319 16.9144 28.9319 17.261 29.1969 17.5275C29.4121 17.7326 29.6933 17.7633 29.9594 17.7633H30.8724V19.4162C30.3089 19.493 29.5799 19.5577 29.0476 19.5577C28.4343 19.5577 27.6046 19.4315 27.0562 18.881C26.4278 18.2536 26.4602 17.465 26.4602 16.6962V13.0319H25.1318V11.3801H26.4602L26.6917 8.92773H28.9319V11.3801Z" fill="white"/>
<path d="M46.5334 19.3998H45.1391L44.726 18.2219C44.4425 18.5838 44.0606 18.8964 43.6961 19.1026C43.0828 19.4327 42.2856 19.5588 41.5901 19.5588C40.5614 19.5588 39.2677 19.3526 38.1893 18.2219C37.1953 17.1832 36.6792 15.5479 36.6792 14.1495C36.6792 12.7171 37.1108 11.1137 38.1048 10.0279C39.2839 8.73914 40.7593 8.45618 41.9373 8.45618C45.3717 8.45618 46.3402 10.6289 46.4999 12.262H43.9275C43.8789 11.8693 43.7135 11.3977 43.4647 11.0819C43.1997 10.7364 42.7183 10.3437 41.8887 10.3437C41.2407 10.3437 40.4781 10.5949 39.9805 11.5074C39.8486 11.7586 39.5339 12.4188 39.5339 13.9916C39.5339 14.9195 39.6484 15.9417 40.0638 16.6019C40.4133 17.1514 41.0081 17.6724 41.987 17.6724C42.6026 17.6724 43.099 17.4519 43.4311 17.1371C43.7621 16.8224 44.0132 16.2893 44.0132 15.7223V15.4536H41.7382V13.6132H46.5346V19.3998H46.5334Z" fill="white"/>
<path d="M48.3687 19.3997V11.3801H50.5267V13.1569H50.5603C50.6413 12.5438 50.9583 12.1193 51.1736 11.9C51.4548 11.617 51.9847 11.2233 52.848 11.2233C52.9984 11.2233 53.1477 11.2408 53.2969 11.2551V13.362H52.8989C52.4846 13.362 52.0854 13.4409 51.7695 13.6296C50.9572 14.1166 50.8403 14.8722 50.8403 15.72V19.3986H48.3687V19.3997Z" fill="white"/>
<path d="M61.1087 12.3233C61.5068 12.7017 62.3688 13.691 62.3688 15.3735C62.3688 16.6633 61.8389 17.8116 61.0428 18.5355C60.463 19.0542 59.5165 19.5577 58.173 19.5577C56.8273 19.5577 55.883 19.0542 55.3022 18.5355C54.506 17.8116 53.9761 16.6633 53.9761 15.3735C53.9761 13.691 54.8393 12.7006 55.2385 12.3233C56.2175 11.4108 57.3434 11.2222 58.1742 11.2222C59.0015 11.2222 60.1298 11.4108 61.1087 12.3233ZM56.9939 13.4245C56.5947 14.0058 56.5623 14.7757 56.5623 15.3735C56.5623 16.4582 56.744 16.9769 56.9441 17.3082C57.2589 17.8269 57.7252 17.9849 58.173 17.9849C58.6197 17.9849 59.086 17.8258 59.4008 17.3082C59.601 16.9769 59.7826 16.4593 59.7826 15.3735C59.7826 14.7757 59.7502 14.0058 59.3522 13.4245C59.0698 13 58.7042 12.7949 58.173 12.7949C57.6419 12.7949 57.2751 13.0011 56.9939 13.4245Z" fill="white"/>
<path d="M66.0562 11.3801V16.2081C66.0562 16.5054 66.0562 17.0724 66.3362 17.4179C66.519 17.6537 66.8338 17.7798 67.1809 17.7798C67.579 17.7798 68.0106 17.6076 68.2941 17.2457C68.6239 16.8377 68.676 16.3518 68.676 15.9416V11.3812H71.1465V19.4008H68.8565V17.9695H68.8252C68.3925 18.9139 67.5292 19.5588 66.2876 19.5588C65.5227 19.5588 64.9604 19.3383 64.5288 18.9906C63.6979 18.3304 63.5811 17.4179 63.5811 16.5865V11.3812H66.0562V11.3801Z" fill="white"/>
<path d="M72.9546 21.9782V11.3801H75.2446V12.6699C75.7584 11.7267 76.7547 11.2233 77.8158 11.2233C79.8905 11.2233 81.0014 12.9375 81.0014 15.3131C81.0014 18.3315 79.3582 19.5588 77.7162 19.5588C76.7049 19.5588 75.9435 19.165 75.4274 18.3786V21.9793H72.9546V21.9782ZM75.4274 16.1928C75.4274 17.3093 75.9736 17.986 76.8692 17.986C78.0993 17.986 78.4105 16.7115 78.4105 15.3592C78.4105 13.5353 77.8146 12.7949 76.8692 12.7949C75.9898 12.7949 75.4274 13.5035 75.4274 14.4631V16.1928Z" fill="white"/>
<path d="M35.2399 7.4624H32.7266V19.3756H35.2399V7.4624Z" fill="white"/>
<path d="M35.2283 7.46582H32.7139V19.3779H35.2283V7.46582Z" fill="white"/>
<path d="M0 0.321411V33.6787H35.2327V21.8028H32.7159V31.2921H2.54919L2.53993 2.71677L32.7159 2.70799V5.09567H35.2327V0.321411H0Z" fill="white"/>
</g>
<defs>
<clipPath id="clip0">
<rect width="81" height="34" fill="white"/>
</clipPath>
</defs>
</svg>
