<svg width="110" height="49" viewBox="0 0 110 49" fill="none" xmlns="http://www.w3.org/2000/svg">
<path d="M10.2344 17L6.12109 10.1562H4.73828V17H0.648438V0.195312H4.73828V6.89844H6.12109L9.96484 0.195312H14.4531L9.46094 8.31641L14.8633 17H10.2344ZM25.1641 15.7227C24.2422 16.7539 22.7812 17.2695 20.7812 17.2695C18.7812 17.2695 17.3203 16.7539 16.3984 15.7227C15.4844 14.6836 15.0273 13.0547 15.0273 10.8359C15.0273 8.60938 15.4844 6.98438 16.3984 5.96094C17.3203 4.9375 18.7812 4.42578 20.7812 4.42578C22.7812 4.42578 24.2422 4.9375 25.1641 5.96094C26.0859 6.98438 26.5469 8.60938 26.5469 10.8359C26.5469 13.0547 26.0859 14.6836 25.1641 15.7227ZM19.2812 13.4141C19.5625 13.8984 20.0586 14.1406 20.7695 14.1406C21.4805 14.1406 21.9805 13.8984 22.2695 13.4141C22.5586 12.9219 22.7031 12.0625 22.7031 10.8359C22.7031 9.60156 22.5586 8.74219 22.2695 8.25781C21.9805 7.76562 21.4805 7.51953 20.7695 7.51953C20.0586 7.51953 19.5625 7.76562 19.2812 8.25781C19 8.74219 18.8594 9.60156 18.8594 10.8359C18.8594 12.0625 19 12.9219 19.2812 13.4141ZM39.0625 4.66016H42.3555V17H38.7812V10.0391L35.5352 14.5977L32.2773 10.0859V17H28.75V4.66016H32.0312L35.5586 9.65234L39.0625 4.66016ZM45.1328 17V4.66016H55.9023V17H52.1406V7.8125H48.8945V17H45.1328ZM61.9141 17.2695C60.6328 17.2695 59.6523 16.9258 58.9727 16.2383C58.293 15.543 57.9531 14.582 57.9531 13.3555C57.9531 12.1836 58.3281 11.2695 59.0781 10.6133C59.8359 9.95703 60.918 9.62891 62.3242 9.62891H65.1836V9.21875C65.1836 8.60938 65.0078 8.17578 64.6562 7.91797C64.3047 7.65234 63.6875 7.51953 62.8047 7.51953C61.4609 7.51953 60.1719 7.69531 58.9375 8.04688L59.4883 4.90625C60.6602 4.61719 62.0117 4.47266 63.543 4.47266C67.1289 4.47266 68.9219 6.0625 68.9219 9.24219V17H65.6641L65.1836 15.7578C64.668 16.7656 63.5781 17.2695 61.9141 17.2695ZM63.0977 14.5039C63.832 14.5039 64.3633 14.3633 64.6914 14.082C65.0195 13.8008 65.1836 13.3008 65.1836 12.582V11.8672H63.0977C62.0742 11.8672 61.5586 12.3047 61.5508 13.1797C61.5586 14.0625 62.0742 14.5039 63.0977 14.5039ZM78.6719 4.66016H82.4453V17H78.6719V12.3242H75.332V17H71.5703V4.66016H75.332V9.27734H78.6719V4.66016ZM92.8398 4.66016H96.5078V17H92.8398V9.875L88.9023 17H85.2344V4.66016H88.9023V11.8203L92.8398 4.66016ZM103.809 4.66016H109.668V17H106.035V13.0391H104.477L102.438 17H98.4766L100.973 12.5117C99.582 11.8711 98.8867 10.6641 98.8867 8.89062C98.8867 6.07031 100.527 4.66016 103.809 4.66016ZM106.035 10.2617V7.63672H104.043C103.035 7.63672 102.531 8.07422 102.531 8.94922C102.531 9.82422 103.035 10.2617 104.043 10.2617H106.035ZM4.08203 42.582L1.08203 37.8359L4.08203 33.1016H7.25781L4.78516 37.8359L7.25781 42.582H4.08203ZM9.4375 42.582L6.41406 37.8359L9.4375 33.1016H12.5781L10.1289 37.8359L12.5781 42.582H9.4375ZM25.5859 44L24.5547 40.7305H18.7422L17.6875 44H13.5156L19.6797 27.1953H23.6875L29.8633 44H25.5859ZM19.7266 37.5898H23.5469L21.625 31.6367L19.7266 37.5898ZM31.2461 44V31.6602H42.0156V44H38.2539V34.8125H35.0078V44H31.2461ZM51.8711 31.4258C53.4102 31.4258 54.5352 31.9336 55.2461 32.9492C55.957 33.9648 56.3125 35.5938 56.3125 37.8359C56.3125 40.0703 55.957 41.7031 55.2461 42.7344C54.5352 43.7578 53.4102 44.2695 51.8711 44.2695C51.2461 44.2695 50.6797 44.1602 50.1719 43.9414C49.6719 43.7227 49.3164 43.5156 49.1055 43.3203C48.9023 43.1172 48.7344 42.9297 48.6016 42.7578V48.2422L44.8164 48.8047V31.6602H48.1211L48.6016 32.9375C48.7266 32.7422 48.8945 32.5508 49.1055 32.3633C49.3164 32.168 49.6719 31.9648 50.1719 31.7539C50.6797 31.5352 51.2461 31.4258 51.8711 31.4258ZM49.0352 40.4141C49.3242 40.8984 49.8242 41.1406 50.5352 41.1406C51.2461 41.1406 51.75 40.8984 52.0469 40.4141C52.3438 39.9219 52.4922 39.0625 52.4922 37.8359C52.4922 36.6016 52.3438 35.7422 52.0469 35.2578C51.75 34.7656 51.2461 34.5195 50.5352 34.5195C49.8242 34.5195 49.3242 34.7656 49.0352 35.2578C48.7461 35.7422 48.6016 36.6016 48.6016 37.8359C48.6016 39.0625 48.7461 39.9219 49.0352 40.4141ZM64.4805 44.2695C62.2227 44.2695 60.5742 43.7383 59.5352 42.6758C58.4961 41.6055 57.9766 40.0078 57.9766 37.8828C57.9766 35.7734 58.4648 34.1719 59.4414 33.0781C60.4258 31.9766 61.8711 31.4258 63.7773 31.4258C67.4883 31.4258 69.3438 33.5469 69.3438 37.7891V38.8906H61.6914C61.7539 39.6719 62.0273 40.2539 62.5117 40.6367C63.0039 41.0195 63.7773 41.2109 64.832 41.2109C65.5195 41.2109 66.2344 41.1445 66.9766 41.0117C67.7266 40.8789 68.332 40.7305 68.793 40.5664L68.2656 43.707C67.0859 44.082 65.8242 44.2695 64.4805 44.2695ZM61.6914 36.582H65.9688C65.8906 34.9961 65.1836 34.2031 63.8477 34.2031C63.207 34.2031 62.7031 34.4062 62.3359 34.8125C61.9688 35.2109 61.7539 35.8008 61.6914 36.582ZM72.8594 31.6602H82.2461V44H78.5664V34.8125H76.1641L76.0234 38.4102C75.8672 42.3008 74.5156 44.2422 71.9688 44.2344C71.3594 44.2344 70.9336 44.1641 70.6914 44.0234L70.1641 40.9531C70.375 41.0156 70.6406 41.0469 70.9609 41.0469C71.4766 41.0469 71.8633 40.8398 72.1211 40.4258C72.3867 40.0117 72.543 39.2812 72.5898 38.2344L72.8594 31.6602ZM85.0352 44V31.6602H88.75V35.1406H91.0586C92.6914 35.1406 93.918 35.5273 94.7383 36.3008C95.5664 37.0664 95.9805 38.1523 95.9805 39.5586C95.9805 40.9805 95.5664 42.0781 94.7383 42.8516C93.918 43.6172 92.6914 44 91.0586 44H85.0352ZM88.75 41.0469H90.7656C91.2578 41.0469 91.6328 40.9219 91.8906 40.6719C92.1484 40.4141 92.2773 40.043 92.2773 39.5586C92.2773 38.582 91.7734 38.0938 90.7656 38.0938H88.75V41.0469ZM100.562 42.582H97.3984L99.8711 37.8359L97.3984 33.1016H100.562L103.562 37.8359L100.562 42.582ZM105.918 42.582H102.754L105.191 37.8359L102.754 33.1016H105.918L108.918 37.8359L105.918 42.582Z" fill="white"/>
</svg>
